<?xml version="1.0" encoding="utf-8"?>
<!-- Generator: Adobe Illustrator 23.0.1, SVG Export Plug-In . SVG Version: 6.00 Build 0)  -->
<svg version="1.1" id="Layer_1" xmlns="http://www.w3.org/2000/svg" xmlns:xlink="http://www.w3.org/1999/xlink" x="0px" y="0px"
	 width="903.6px" height="399.6px" viewBox="0 0 903.6 399.6" style="enable-background:new 0 0 903.6 399.6;" xml:space="preserve"
	>
<style type="text/css">
	.st0{fill:#A15737;}
	.st1{fill:#87482C;}
	.st2{fill:#A597E7;}
	.st3{fill:#F0C24B;}
	.st4{fill:#B5D56A;}
	.st5{fill:#FFFFFF;}
	.st6{fill:#84BED6;}
	.st7{fill:#EA77AD;}
</style>
<path class="st0" d="M406.627,128.548l0.016,0.279c0.31-0.083,0.62-0.162,0.93-0.253c0.941,0.699,11.035,8.455,15.027,23.012
	c1.169,4.463,5.632,7.043,10.337,6.102c0.228,0,0.47,0,0.699-0.228c4.691-1.169,7.514-6.102,6.345-10.565
	c-3.764-14.086-11.748-23.482-17.152-28.415c0.204-0.204,0.358-0.457,0.492-0.729l-0.473-0.016
	C415.278,126.385,406.627,128.548,406.627,128.548z"/>
<path class="st1" d="M713.625,174.398c-11.748-12.233-37.112-23.268-38.053-23.739c-1.169-0.471-2.352-0.699-3.522-0.699
	c-1.882,0-3.764,0.699-5.404,1.882c-5.874,4.691-11.748,7.286-15.27,8.455c-14.329-20.431-35.943-35.701-64.358-45.795
	c-20.431-7.043-44.626-11.278-66.939-11.278c-16.681,0-29.599,2.352-35.701,6.102l-0.228,0.228h-0.228
	c-0.228,0.228-0.699,0.471-0.941,0.941l-0.242,0.228c-0.228,0.228-0.228,0.228-0.228,0.47c-0.471,0.699-5.161,6.573-7.756,18.549
	c-0.223,0.9-0.388,1.829-0.532,2.768c0.184,1.544,0.195,3.278-0.01,5.228c-2.163,20.546,0,25.953,0,25.953l-0.099,0.493
	c0.055-0.046,0.115-0.092,0.17-0.139c0.941,5.874,2.352,11.976,4.234,18.549v0.228c5.404,17.622,14.557,36.642,27.018,56.374
	c26.548,42.045,49.089,71.402,68.108,88.311c-0.281,0.218-0.565,0.414-0.846,0.627l0.9-0.075c0,0,5.407,6.488,15.139,10.814
	c0.101,0.045,0.183,0.104,0.278,0.152c0.085-0.072,0.17-0.139,0.255-0.211c7.043,4.234,13.388,6.345,19.49,6.345
	c0.228,0,0.699,0,0.941,0c9.624-0.47,24.665-12.447,37.112-30.297c11.748-16.909,37.112-62.248,19.961-122.372
	c4.691-2.581,14.086-4.235,25.607-4.235c4.691,0,9.624,0.228,13.858,0.699c0.228,0,0.699,0,0.941,0c3.293,0,6.345-1.882,7.756-4.691
	C716.676,180.971,716.206,176.979,713.625,174.398z M634.239,302.388c-11.976,17.85-23.254,25.136-25.364,25.364c0,0,0,0-0.228,0
	c-3.051,0-14.086-2.11-36.642-27.246c13.16,4.933,26.776,7.514,40.862,7.514c4.691,0,8.697-3.992,8.697-8.697
	s-3.992-8.697-8.697-8.697c-42.516,0-69.292-27.474-72.571-31.01c-6.345-9.153-12.917-19.02-19.49-29.827
	c-1.64-2.823-3.522-5.632-4.933-8.227c21.843,15.027,56.374,29.827,107.573,29.827c4.691,0,8.697-3.992,8.697-8.697
	s-3.992-8.697-8.697-8.697c-89.965,0-123.784-50.03-128.246-57.073c-5.874-19.732-5.632-33.591-3.764-42.986
	c18.791,21.144,64.116,61.536,135.988,61.536c4.691,0,8.697-3.992,8.697-8.697s-3.992-8.697-8.697-8.697
	c-64.829,0-106.404-37.112-123.541-56.374c4.691-0.699,10.337-0.941,16.439-0.941c11.748,0,35.23,1.412,60.837,10.094
	c24.423,8.455,55.904,26.305,67.41,62.477C665.007,244.844,646.444,283.839,634.239,302.388z"/>
<path class="st0" d="M573.699,328.061l-0.9,0.075c-29.191,22.009-63.582,14.595-94.522,8.071
	c-8.697-1.882-16.909-3.522-24.195-4.463c-22.313-2.581-45.567-2.11-60.595-1.169c8.455-24.423,9.153-53.794,8.925-79.856
	c-0.47-29.128,21.614-60.124,53.794-75.394c7.201-3.481,13.24-7.199,17.908-11.139l0.099-0.493c0,0-2.163-5.407,0-25.953
	c0.205-1.95,0.194-3.683,0.01-5.228c-0.308,2.006-0.481,4.079-0.637,6.157c-3.992,5.404-11.506,13.616-24.894,19.732
	c-38.524,18.079-64.829,56.132-64.358,92.303c0,5.632,0,11.506,0,17.622c-73.982,19.732-104.75-20.673-114.859-39.693
	c0.859-0.859,1.644-1.765,2.372-2.703c-0.774,0.484-1.453,1.003-2.013,1.563c-9.732,9.732-16.221,9.732-16.221,9.732l-0.338,0.338
	c10.518,19.363,37.766,54.502,93.461,54.502c11.035,0,23.012-1.411,36.399-4.463c-1.411,17.622-4.933,35.23-11.976,48.861
	c-1.64,3.051-1.412,6.573,0.47,9.396s5.161,4.463,8.697,3.992c0.471,0,38.053-3.992,71.644,0c6.573,0.699,14.329,2.353,22.555,4.235
	c15.27,3.293,32.878,7.043,51.199,7.043c21.282,0,43.271-5.122,63.391-22.102c-0.095-0.049-0.177-0.108-0.278-0.152
	C579.106,334.549,573.699,328.061,573.699,328.061z"/>
<path class="st1" d="M269.833,227.493c0.56-0.56,1.239-1.079,2.013-1.563c1.663-2.143,2.991-4.471,3.973-6.921
	c6.102-16.211,20.902-36.642,31.937-48.861c32.878-36.171,58.955-40.406,75.864-40.406c3.522,0,7.043,0.228,10.807,0.471
	c0.699,0,1.169,0,2.11,0c2.814,0,6.429-0.408,10.105-1.387l-0.016-0.279c0,0,8.651-2.163,16.221-10.814l0.473,0.016
	c0.175-0.356,0.312-0.749,0.449-1.153c6.815-14.329,2.352-26.776,0-31.481c-12.917-26.077-43.215-35.23-66.24-38.281
	c-7.728-0.941-15.712-1.64-23.938-1.64c-16.211,0-32.407,2.11-42.274,5.404c-12.689,4.234-23.254,8.697-32.65,13.858
	c-2.581-1.882-7.756-6.345-13.63-14.101c-2.338-1.397-4.691-2.581-7.043-2.581c-0.228,0-0.47,0-0.47,0
	c-0.699,0-17.85,1.412-32.65,11.506c-2.809,1.882-3.992,5.404-3.279,8.469c0.699,3.279,3.522,5.632,6.801,6.102
	c5.646,0.699,18.093,4.22,21.843,10.807c-12.917,11.976-22.555,26.305-28.658,42.986c-12.447,33.348-6.815,71.174,5.404,91.134
	c7.286,11.976,21.144,19.49,36.4,19.49c1.411,0,2.823,0,4.234-0.228c1.882-0.228,3.522-0.47,5.404-0.941
	c0.08,0.15,0.171,0.309,0.253,0.461l0.338-0.338C253.613,237.226,260.101,237.226,269.833,227.493z M245.978,222.289
	c-0.941,0-1.64,0-2.581,0c-3.764,0-16.211-0.941-22.784-11.976c-9.866-16.211-14.557-48.861-3.992-77.276
	c15.27-40.634,50.258-57.073,79.158-66.939c8.455-2.823,22.541-4.691,36.87-4.691c7.514,0,15.027,0.471,22.085,1.412
	c19.262,2.581,44.156,9.866,54.022,29.599c0.471,0.941,0.941,2.11,1.411,3.764c-13.616-7.756-43.215-21.372-80.797-21.372
	c-21.614,0-42.986,4.463-63.417,13.388c-3.992,1.882-5.874,6.573-4.234,10.565c1.169,2.809,4.234,4.691,7.286,4.691
	c1.169,0,2.11-0.228,3.294-0.699c18.079-7.984,37.112-11.976,56.602-11.976c37.34,0,65.998,14.799,76.805,21.144
	c-2.823,1.412-6.815,2.352-9.396,2.352c-0.228,0-0.471,0-0.699,0c-4.463-0.47-8.455-0.699-12.447-0.699
	c-12.447,0-24.195,2.352-35.701,6.815c-3.308-0.97-16.924-4.734-36.186-4.734c-26.548,0-51.441,6.815-74.225,19.96
	c-3.75,2.124-5.161,7.057-2.809,11.05c1.411,2.353,3.992,3.992,6.815,3.992c1.412,0,2.823-0.471,3.992-1.169
	c19.961-11.748,42.274-17.622,66.24-17.622c4.691,0,9.153,0.228,13.616,0.699c-10.094,7.043-19.961,15.968-29.827,26.547
	c-1.426,1.64-3.065,3.293-4.705,5.404c-9.624,0-40.163,2.11-67.181,23.482c-1.64,1.412-2.823,3.293-3.051,5.404
	c-0.228,2.11,0.228,4.234,1.64,5.874c1.411,1.882,3.764,3.051,6.345,3.051c1.882,0,3.522-0.699,4.933-1.64
	c15.27-11.976,31.709-16.909,44.156-18.791c-5.874,8.697-13.16,20.203-17.38,31.481C258.667,218.297,253.264,221.59,245.978,222.289
	z"/>
<path class="st0" d="M407.117,322.576c0.228,0.471,0.699,0.699,1.169,0.699c0.228,0,29.827-7.043,61.535,0
	c16.439,3.764,35.701,6.345,52.61,6.345c14.086,0,26.548-1.882,35.23-6.573c0.228-0.228,0.47-0.47,0.47-0.941
	s-0.228-0.699-0.47-0.941c0,0.242-13.616-9.381-22.071-24.409c-0.228-0.228-0.47-0.47-0.699-0.47c-0.228,0-0.471,0-0.699,0
	c-0.228,0-19.02,10.565-41.575,10.565c-23.254,0-70.233,6.102-85.032,14.557C407.117,321.635,406.889,322.106,407.117,322.576z"/>
<path class="st0" d="M377.276,235.919c-0.228-0.228-0.699-0.471-0.941-0.228c-0.699,0.228-66.939,17.38-96.295-11.976
	c-0.471-0.471-0.941-0.471-1.411,0c-0.47,0.228-0.47,0.941-0.228,1.411c0.699,1.411,18.791,34.061,45.567,38.524
	c8.697,1.64,17.622,2.11,25.364,2.11c15.498,0,27.246-2.11,27.474-2.11s0.471-0.228,0.699-0.471c0.228-0.228,0.228-0.47,0-0.941
	c0,0-3.992-11.748,0-25.364C377.518,236.39,377.518,236.147,377.276,235.919z"/>
<path class="st2" d="M272.477,269.727h-90.856c-1.792,0-3.244-1.452-3.244-3.244s1.453-3.244,3.244-3.244h89.797l45.368-60.483
	c1.447-1.058,3.475-0.741,4.534,0.704c1.057,1.447,0.741,3.476-0.705,4.534l-46.223,61.108
	C273.836,269.509,273.165,269.727,272.477,269.727z"/>
<path class="st3" d="M400.058,377.666h-50.824c-1.792,0-3.244-1.452-3.244-3.244s1.453-3.244,3.244-3.244h49.04l45.268-67.15
	c0.959-1.514,2.964-1.963,4.477-1.002c1.513,0.959,1.962,2.963,1.002,4.477l-46.223,68.656
	C402.203,377.098,401.169,377.666,400.058,377.666z"/>
<path class="st4" d="M606.684,301.728c-1.11,0-2.19-0.569-2.796-1.594c-0.911-1.543-0.399-3.532,1.143-4.444l54.586-38.124
	c0.501-0.295,1.07-0.451,1.651-0.451h55.714c1.792,0,3.244,1.452,3.244,3.244s-1.452,3.244-3.244,3.244h-54.827l-53.823,37.673
	C607.813,301.583,607.244,301.728,606.684,301.728z"/>
<circle class="st5" cx="318.701" cy="205.375" r="14.058"/>
<circle class="st5" cx="446.281" cy="305.766" r="14.058"/>
<circle class="st5" cx="606.68" cy="298.484" r="14.058"/>
<path class="st2" d="M318.701,222.677c-9.54,0-17.302-7.762-17.302-17.302c0-9.54,7.762-17.302,17.302-17.302
	s17.302,7.762,17.302,17.302C336.002,214.915,328.241,222.677,318.701,222.677z M318.701,194.561
	c-5.963,0-10.814,4.851-10.814,10.814c0,5.962,4.851,10.814,10.814,10.814c5.963,0,10.814-4.851,10.814-10.814
	C329.514,199.413,324.663,194.561,318.701,194.561z"/>
<path class="st3" d="M446.281,323.068c-9.54,0-17.302-7.762-17.302-17.302s7.762-17.302,17.302-17.302s17.302,7.762,17.302,17.302
	S455.822,323.068,446.281,323.068z M446.281,294.952c-5.963,0-10.814,4.851-10.814,10.814c0,5.962,4.851,10.814,10.814,10.814
	c5.962,0,10.814-4.851,10.814-10.814S452.244,294.952,446.281,294.952z"/>
<path class="st4" d="M606.68,315.786c-9.54,0-17.302-7.762-17.302-17.302s7.762-17.302,17.302-17.302s17.302,7.762,17.302,17.302
	C623.982,308.024,616.221,315.786,606.68,315.786z M606.68,287.67c-5.962,0-10.814,4.851-10.814,10.814
	c0,5.962,4.851,10.814,10.814,10.814c5.962,0,10.814-4.851,10.814-10.814C617.494,292.522,612.643,287.67,606.68,287.67z"/>
<g>
	<path class="st6" d="M278.471,79.143l-40.926-50.019h-45.929c-1.792,0-3.244-1.453-3.244-3.244s1.452-3.244,3.244-3.244h47.58
		c1.038,0,2.013,0.497,2.623,1.336l41.898,51.355c1.054,1.449,0.734,3.478-0.715,4.532c-0.577,0.418-1.244,0.62-1.905,0.62
		C280.094,80.479,279.105,80.016,278.471,79.143z"/>
	<circle class="st5" cx="281.094" cy="77.235" r="14.058"/>
	<path class="st6" d="M263.792,77.235c0-9.54,7.762-17.302,17.302-17.302s17.302,7.762,17.302,17.302s-7.762,17.302-17.302,17.302
		S263.792,86.775,263.792,77.235z M270.28,77.235c0,5.963,4.852,10.814,10.814,10.814c5.963,0,10.814-4.851,10.814-10.814
		s-4.852-10.814-10.814-10.814S270.28,71.272,270.28,77.235z"/>
	<path class="st6" d="M196.512,1.855H64.777c-13.269,0-24.026,10.757-24.026,24.026v0c0,13.269,10.757,24.026,24.026,24.026h131.735
		c13.269,0,24.026-10.757,24.026-24.026v0C220.538,12.611,209.781,1.855,196.512,1.855z"/>
	<path class="st5" d="M196.117,47.389H65.172c-11.86,0-21.509-9.649-21.509-21.508S53.312,4.373,65.172,4.373h130.945
		c11.859,0,21.508,9.648,21.508,21.508S207.976,47.389,196.117,47.389z M65.172,5.034c-11.495,0-20.848,9.352-20.848,20.847
		s9.353,20.847,20.848,20.847h130.945c11.495,0,20.847-9.352,20.847-20.847s-9.352-20.847-20.847-20.847H65.172z"/>
	<g>
		<path class="st5" d="M95.221,12.178h0.636c1.285,0.232,1.928,0.725,1.928,1.477c0,0.219-0.226,0.465-0.677,0.738h-0.759
			c-0.355-0.438-0.615-0.656-0.779-0.656c-1.094,0.383-1.641,0.711-1.641,0.984c-1.094,2.078-1.641,4.895-1.641,8.449v1.395
			c0,2.42,0.328,5.325,0.984,8.716c0.383,2.447,0.896,4.081,1.538,4.901c0.725,0.629,1.333,0.957,1.825,0.984
			c0.602,0,1.374-0.602,2.317-1.805h0.533c0.314,0,0.567,0.191,0.759,0.574v0.246c0,0.629-0.677,1.374-2.03,2.235
			c-0.615,0.26-1.176,0.39-1.682,0.39h-0.123c-0.943-0.109-1.9-0.588-2.871-1.436c-1.053-0.834-1.948-4.026-2.687-9.577
			c-0.273-1.189-0.41-3.151-0.41-5.886v-0.492c0.096-5.66,1.066-9.188,2.912-10.582C94.271,12.396,94.893,12.178,95.221,12.178z"/>
		<path class="st5" d="M107.567,11.85c1.859,0,3.261,3.814,4.204,11.443c0.055,0.725,0.082,1.641,0.082,2.748v0.328
			c0,0.219-0.021,0.438-0.062,0.656c0.041,0.055,0.062,0.273,0.062,0.656v0.082c0,0.383-0.021,0.602-0.062,0.656
			c0.041,0.219,0.062,0.355,0.062,0.41c0,5.879-0.861,9.543-2.584,10.992c-0.697,0.273-1.183,0.41-1.456,0.41h-0.656
			c-2.229-0.533-3.603-3.206-4.122-8.019l-0.246-3.363c0-7.766,0.991-13.187,2.974-16.263
			C106.418,12.096,107.02,11.85,107.567,11.85z M104.634,28.584c0,3.049,0.403,5.715,1.21,7.998c0.67,1.34,1.189,2.01,1.559,2.01
			h0.082c0.82,0,1.367-0.663,1.641-1.989c0.588-1.395,0.882-4.396,0.882-9.003v-1.641c0-3.186-0.567-6.843-1.702-10.972
			c-0.369-0.82-0.643-1.292-0.82-1.415c-0.301,0.109-0.492,0.287-0.574,0.533C105.393,17.318,104.634,22.144,104.634,28.584z"/>
		<path class="st5" d="M120.958,13.08h0.185c1.23,0,2.222,0.479,2.974,1.436v0.287c0,0.219-0.226,0.465-0.677,0.738
			c-0.342,0-0.848-0.212-1.518-0.636c-0.246-0.123-0.533-0.185-0.861-0.185h-0.246c-1.354,0.328-2.03,4.867-2.03,13.617
			c0,4.184,0.485,7.362,1.456,9.536c0.26,0.561,0.766,0.991,1.518,1.292h0.144c0.684-0.137,1.025-0.547,1.025-1.23
			c0.219,0,0.492-1.511,0.82-4.532v-3.979v-0.021c0.574,0,0.861,0.041,0.861,0.123c-2.871-0.219-4.307-0.526-4.307-0.923
			l-0.082-0.41v-0.103c0-0.232,0.205-0.451,0.615-0.656h0.595c0.191,0.15,1.388,0.321,3.589,0.513
			c0.383,0.383,0.574,1.032,0.574,1.948v2.051c0,0.328-0.027,0.745-0.082,1.251c0.055,0.096,0.082,0.205,0.082,0.328
			c-0.396,4.58-1.025,6.87-1.887,6.87c0,0.055-0.561,0.191-1.682,0.41h-0.451c-1.066-0.246-1.989-0.841-2.769-1.784
			c-1.244-2.352-1.866-5.94-1.866-10.767c0-9.174,1.019-14.198,3.056-15.073L120.958,13.08z"/>
		<path class="st5" d="M132.115,11.665c0.574,0,1.982,3.842,4.225,11.525c0.314,1.75,1.6,6.063,3.855,12.94h-0.677v-0.287
			c-0.314-6.645-0.472-10.377-0.472-11.197c0-0.246,0.034-1.08,0.103-2.502c-0.014-0.15-0.021-0.479-0.021-0.984
			c0.109-1.08,0.164-1.935,0.164-2.563v-5.845c0.068-0.574,0.438-0.861,1.107-0.861l0.861,0.451c-0.164,3.24-0.246,5.64-0.246,7.198
			v2.317c0,4.758,0.15,10.972,0.451,18.642l-0.82,0.41c-0.684,0-2.837-6.166-6.46-18.498l-2.153-7.342l0.759,1.23l0.062-1.189
			c0.096,1.135,0.144,2.037,0.144,2.707l0.021,0.697c-0.109,3.035-0.164,5.161-0.164,6.378c0,6.111,0.246,11.293,0.738,15.545
			h-1.025c-0.643,0-0.964-0.287-0.964-0.861c-0.314-4.771-0.472-9.044-0.472-12.817V12.526
			C131.226,11.952,131.554,11.665,132.115,11.665z"/>
		<path class="st5" d="M147.331,12.096h0.328c0.725,0,1.087,1.586,1.087,4.758v1.066c0,1.08-0.164,3.849-0.492,8.306
			c0,0.178,0.027,0.376,0.082,0.595c-0.055,2.885-0.082,5.168-0.082,6.85v5.332c0,0.082,0.055,0.349,0.164,0.8
			c-0.109,0.67-0.39,1.005-0.841,1.005h-0.328c-0.561,0-0.841-0.875-0.841-2.625c0-9.502,0.164-16.044,0.492-19.626v-2.276
			c0-1.258-0.082-2.399-0.246-3.425C146.655,12.622,146.88,12.369,147.331,12.096z"/>
		<path class="st5" d="M162.425,13.244l0.533,0.615v0.328c0,0.506-0.937,0.759-2.81,0.759h-2.297c0.164,0,0.253-0.021,0.267-0.062
			l0.164,3.712c-0.055,0.342-0.082,0.526-0.082,0.554c0.492,8.271,0.738,14.171,0.738,17.698c0.055,0.096,0.082,0.232,0.082,0.41
			c-0.055,0.082-0.082,0.109-0.082,0.082l0.103,0.554c-0.191,0.438-0.451,0.656-0.779,0.656h-0.328
			c-0.232,0-0.513-0.191-0.841-0.574c0-0.191,0.027-0.499,0.082-0.923c0-1.162-0.246-7.062-0.738-17.698
			c0-1.723-0.048-3.227-0.144-4.512l0.185,0.103h-0.082l-2.871,0.246c-0.355-0.383-0.533-0.738-0.533-1.066
			c0-0.232,0.26-0.479,0.779-0.738c0.479,0.123,0.711,0.185,0.697,0.185c1.053-0.096,1.798-0.144,2.235-0.144h3.363
			C160.737,13.429,161.523,13.367,162.425,13.244z"/>
		<path class="st5" d="M168.66,12.096h0.328c0.725,0,1.087,1.586,1.087,4.758v1.066c0,1.08-0.164,3.849-0.492,8.306
			c0,0.178,0.027,0.376,0.082,0.595c-0.055,2.885-0.082,5.168-0.082,6.85v5.332c0,0.082,0.055,0.349,0.164,0.8
			c-0.109,0.67-0.39,1.005-0.841,1.005h-0.328c-0.561,0-0.841-0.875-0.841-2.625c0-9.502,0.164-16.044,0.492-19.626v-2.276
			c0-1.258-0.082-2.399-0.246-3.425C167.983,12.622,168.208,12.369,168.66,12.096z"/>
		<path class="st5" d="M182.441,11.768h0.328c0.342,0,0.595,0.232,0.759,0.697l-2.461,22.046c-0.219,4.143-0.506,6.214-0.861,6.214
			l-0.164,0.082h-0.39c-0.574,0-1.046-1.682-1.415-5.045c-1.422-9.037-2.133-16.256-2.133-21.656l-0.246-1.066
			c0-0.246,0.226-0.506,0.677-0.779h0.328c0.834,0,1.251,2.263,1.251,6.788c0.697,7.807,1.333,13.392,1.907,16.755h-0.882
			c0-0.861,0.766-7.813,2.297-20.856C181.559,12.827,181.894,11.768,182.441,11.768z"/>
		<path class="st5" d="M192.162,11.685l0.185,0.103c-0.383,0-0.574-0.041-0.574-0.123c2.434,0.219,3.65,0.561,3.65,1.025v0.144
			c-0.178,0.506-0.499,0.759-0.964,0.759l-2.379-0.246c-0.109,0-0.458,0.021-1.046,0.062l0.041,0.574
			c0,0.902,0.13,4.382,0.39,10.438h0.082c0.396,0,0.738-0.027,1.025-0.082c1.285,0.109,2.297,0.164,3.035,0.164l0.472,0.636v0.349
			c0,0.438-0.28,0.656-0.841,0.656c-0.492,0-1.285-0.055-2.379-0.164c-0.725,0.055-1.183,0.082-1.374,0.082v-0.082
			c0,3.855,0.185,8.176,0.554,12.961c0.068,0,0.103,0.021,0.103,0.062c1.709-0.096,2.803-0.144,3.281-0.144
			c0.424,0.137,0.725,0.383,0.902,0.738v0.164c0,0.219-0.219,0.465-0.656,0.738c-2.174,0.055-3.479,0.109-3.917,0.164
			c-1.025,0-1.538-0.485-1.538-1.456c-0.383-5.223-0.574-9.577-0.574-13.063v-2.625c-0.273-4.812-0.41-8.053-0.41-9.721
			c-0.164-0.82-0.246-1.333-0.246-1.538l0.636-0.472h1.107C191.027,11.788,191.505,11.754,192.162,11.685z"/>
	</g>
	<g>
		<path class="st5" d="M75.643,25.069c-1.145,1.26-2.654,3.035-2.787,4.81c0.481,0.282,0.78,0.812,0.78,1.36
			c0,0.398-0.149,0.78-0.415,1.062c0.266,0.282,0.415,0.664,0.415,1.062c0,0.547-0.282,1.045-0.747,1.343
			c0.133,0.232,0.216,0.515,0.216,0.78c0,1.078-0.846,1.592-1.808,1.592c-0.432,0.962-1.394,1.592-2.438,1.592
			s-2.007-0.63-2.438-1.592c-0.962,0-1.808-0.514-1.808-1.592c0-0.265,0.083-0.547,0.216-0.78c-0.465-0.298-0.747-0.796-0.747-1.343
			c0-0.398,0.149-0.78,0.415-1.062c-0.266-0.282-0.415-0.664-0.415-1.062c0-0.547,0.299-1.078,0.78-1.36
			c-0.133-1.775-1.643-3.55-2.787-4.81c-1.145-1.261-1.708-2.737-1.708-4.445c0-4.511,4.296-7.431,8.492-7.431
			s8.492,2.919,8.492,7.431C77.351,22.332,76.787,23.808,75.643,25.069z M68.858,15.316c-3.002,0-6.369,1.99-6.369,5.308
			c0,1.062,0.432,2.173,1.128,2.985c0.315,0.365,0.68,0.713,1.012,1.095c1.178,1.41,2.173,3.069,2.339,4.943h3.781
			c0.166-1.874,1.161-3.533,2.339-4.943c0.332-0.381,0.696-0.729,1.012-1.095c0.696-0.812,1.128-1.924,1.128-2.985
			C75.227,17.306,71.86,15.316,68.858,15.316z M72.043,21.154c-0.282,0-0.53-0.249-0.53-0.531c0-1.145-1.775-1.592-2.654-1.592
			c-0.282,0-0.531-0.249-0.531-0.531s0.249-0.531,0.531-0.531c1.543,0,3.715,0.812,3.715,2.654
			C72.573,20.905,72.325,21.154,72.043,21.154z"/>
	</g>
</g>
<path class="st3" d="M342.649,349.694H210.914c-13.269,0-24.026,10.757-24.026,24.026v0c0,13.269,10.757,24.026,24.026,24.026
	h131.735c13.269,0,24.026-10.757,24.026-24.026v0C366.675,360.45,355.918,349.694,342.649,349.694z"/>
<path class="st5" d="M342.254,395.228H211.309c-11.86,0-21.509-9.649-21.509-21.508s9.649-21.508,21.509-21.508h130.945
	c11.859,0,21.508,9.648,21.508,21.508S354.114,395.228,342.254,395.228z M211.309,352.873c-11.495,0-20.848,9.352-20.848,20.847
	s9.353,20.847,20.848,20.847h130.945c11.495,0,20.847-9.352,20.847-20.847s-9.352-20.847-20.847-20.847H211.309z"/>
<g>
	<path class="st5" d="M248.105,359.032c2.912,0,4.881,1.278,5.906,3.835c0.178,0.561,0.294,1.217,0.349,1.969
		c0,3.459-0.608,7.253-1.825,11.382c-0.629,1.08-1.531,1.914-2.707,2.502c-0.424,0.014-0.636-0.041-0.636-0.164v0.082
		c0,0.711,0.027,1.312,0.082,1.805c-0.055,0.492-0.082,0.766-0.082,0.82c0.164,3.09,0.246,4.758,0.246,5.004
		c0.164,0.027,0.246,0.355,0.246,0.984v0.308c-0.219,0.574-0.513,0.937-0.882,1.087h-0.287c-0.287,0-0.567-0.212-0.841-0.636v-0.677
		v-0.492c-0.041-0.232-0.096-0.8-0.164-1.702c0-0.342,0.021-0.513,0.062-0.513l-0.226-3.035c0.055-0.561,0.082-0.971,0.082-1.23
		c-0.055-0.998-0.082-1.552-0.082-1.661c-0.219-0.109-0.328-0.335-0.328-0.677c0.123-0.465,0.219-0.697,0.287-0.697
		c-0.082-1.162-0.123-1.9-0.123-2.215l0.39-14.52c-0.096,0-0.144-0.191-0.144-0.574v-0.246
		C247.429,359.552,247.654,359.306,248.105,359.032z M249.418,360.775l-0.39,14.335c0.055,1.148,0.082,1.866,0.082,2.153
		l-0.205-0.103c0.369,0,0.827-0.287,1.374-0.861c0.861-0.547,1.579-3.821,2.153-9.823c0.055-0.984,0.082-1.634,0.082-1.948
		c0-1.299-0.738-2.468-2.215-3.507C249.903,360.885,249.609,360.803,249.418,360.775z"/>
	<path class="st5" d="M264.143,357.494h0.513c0.465,0.232,0.697,0.506,0.697,0.82c0,2.584-0.055,4.58-0.164,5.988l0.164,8.429
		c0.109,0.191,0.164,0.376,0.164,0.554c-0.137,0.41-0.185,0.615-0.144,0.615c0.096,2.27,0.171,6.597,0.226,12.981
		c-0.055,0.301-0.082,0.902-0.082,1.805l-0.574,0.39h-0.636l-0.636-0.492c0-0.711,0.027-1.237,0.082-1.579
		c-0.055-7.465-0.13-11.799-0.226-13.002c-2.174,0.041-3.281,0.068-3.322,0.082c0.096,0.834,0.144,1.757,0.144,2.769
		c0,2.188-0.027,4.102-0.082,5.742c0.055,0.93,0.082,2.803,0.082,5.619c-0.41,0.246-0.745,0.369-1.005,0.369
		c-0.301,0-0.581-0.219-0.841-0.656v-0.82c0-2.229-0.027-3.732-0.082-4.512c0.055-1.34,0.082-2.98,0.082-4.922v-1.23
		c-0.164-2.666-0.246-4.525-0.246-5.578c0.164-6.098,0.246-9.967,0.246-11.607c-0.055-0.219-0.082-0.485-0.082-0.8l0.636-0.472
		h0.533c0.506,0.301,0.759,0.656,0.759,1.066c0,1.025-0.082,5.127-0.246,12.305v1.395l-0.144-0.287
		c0.096-0.027,1.271-0.062,3.527-0.103c-0.041-1.723-0.062-3.015-0.062-3.876v-3.773c0-0.068-0.041-0.171-0.123-0.308l0.123-0.267
		c0.055-2.57,0.082-4.628,0.082-6.173L264.143,357.494z"/>
	<path class="st5" d="M278.354,360.919h0.349c0.287,0,0.567,0.212,0.841,0.636v0.205c-0.438,3.924-0.902,7.745-1.395,11.464
		l0.082,0.472v0.677c-0.205,0-0.506,2.577-0.902,7.731c-0.164,2.721-0.369,4.819-0.615,6.296l-0.492,0.246h-0.472
		c-0.314-0.082-0.567-0.335-0.759-0.759c0.602-7.273,1.039-11.983,1.312-14.13c-1.449-3.131-3.35-6.282-5.701-9.454
		c-0.52-0.369-0.779-0.759-0.779-1.169v-0.164c0-0.219,0.226-0.465,0.677-0.738h0.615c0.383,0.15,0.663,0.506,0.841,1.066
		c2.174,2.693,3.938,5.482,5.291,8.367h-0.738c0.574-4.963,1.005-8.422,1.292-10.377L278.354,360.919z"/>
	<path class="st5" d="M288.813,360.119l0.472,0.595v0.267c0,0.191-0.246,0.458-0.738,0.8h-1.005c-1.217,0-2.037,0.444-2.461,1.333
		c-0.424,1.148-0.636,2.434-0.636,3.855c0,0.861,0.376,2.283,1.128,4.266c0.246,0.492,1.695,1.941,4.348,4.348
		c1.436,2.051,2.153,4.067,2.153,6.05c0,1.559-0.335,3.083-1.005,4.573c-0.355,0.807-1.258,1.477-2.707,2.01
		c-0.547,0.287-1.012,0.431-1.395,0.431c-0.52,0-0.882-0.219-1.087-0.656v-0.287c0-0.396,0.424-0.636,1.271-0.718
		c1.559-0.588,2.338-1.196,2.338-1.825c0.492-0.984,0.738-2.235,0.738-3.753c0-1.982-0.889-3.917-2.666-5.804
		c-1.477-1.121-2.584-2.208-3.322-3.261c-0.533-0.574-1.053-2.044-1.559-4.409c0-0.287-0.027-0.649-0.082-1.087
		c0-1.818,0.342-3.438,1.025-4.86C284.486,360.741,286.216,360.119,288.813,360.119z"/>
	<path class="st5" d="M297.427,359.935h0.328c0.725,0,1.087,1.586,1.087,4.758v1.066c0,1.08-0.164,3.849-0.492,8.306
		c0,0.178,0.027,0.376,0.082,0.595c-0.055,2.885-0.082,5.168-0.082,6.85v5.332c0,0.082,0.055,0.349,0.164,0.8
		c-0.109,0.67-0.39,1.005-0.841,1.005h-0.328c-0.561,0-0.841-0.875-0.841-2.625c0-9.502,0.164-16.044,0.492-19.626v-2.276
		c0-1.258-0.082-2.399-0.246-3.425C296.75,360.461,296.976,360.208,297.427,359.935z"/>
	<path class="st5" d="M308.85,360.017h0.636c1.285,0.232,1.928,0.725,1.928,1.477c0,0.219-0.226,0.465-0.677,0.738h-0.759
		c-0.355-0.438-0.615-0.656-0.779-0.656c-1.094,0.383-1.641,0.711-1.641,0.984c-1.094,2.078-1.641,4.895-1.641,8.449v1.395
		c0,2.42,0.328,5.325,0.984,8.716c0.383,2.447,0.896,4.081,1.538,4.901c0.725,0.629,1.333,0.957,1.825,0.984
		c0.602,0,1.374-0.602,2.317-1.805h0.533c0.314,0,0.567,0.191,0.759,0.574v0.246c0,0.629-0.677,1.374-2.03,2.235
		c-0.615,0.26-1.176,0.39-1.682,0.39h-0.123c-0.943-0.109-1.9-0.588-2.871-1.436c-1.053-0.834-1.948-4.026-2.687-9.577
		c-0.273-1.189-0.41-3.151-0.41-5.886v-0.492c0.096-5.66,1.066-9.188,2.912-10.582C307.899,360.235,308.521,360.017,308.85,360.017z
		"/>
	<path class="st5" d="M320.354,359.832h0.205c0.984,0.451,1.771,1.518,2.358,3.199c1.531,4.73,2.659,10.76,3.384,18.088
		c0.479,2.379,0.718,4.498,0.718,6.357c-0.164,0.41-0.636,0.615-1.415,0.615c-0.328-0.629-0.711-2.919-1.148-6.87
		c-0.123-0.424-0.383-2.14-0.779-5.147l-0.185-0.021c-2.598,0.246-3.896,0.41-3.896,0.492v3.199l-0.554,7.506
		c0.123,0.178,0.185,0.383,0.185,0.615s-0.239,0.492-0.718,0.779c-0.93,0-1.395-0.444-1.395-1.333
		c0.424-5.77,0.636-9.229,0.636-10.377c-0.055-0.752-0.082-1.518-0.082-2.297c0.027-3.951,0.355-8.135,0.984-12.551
		C318.967,360.584,319.534,359.832,320.354,359.832z M320.724,361.944c-0.697,2.68-1.046,6.569-1.046,11.669
		c-0.055,0-0.082,0.526-0.082,1.579v-0.308c1.326-0.369,2.646-0.554,3.958-0.554v0.308c0-1.641-0.902-5.558-2.707-11.751
		C320.505,362.149,320.464,361.835,320.724,361.944z"/>
	<path class="st5" d="M333.5,358.376h0.082c0.301,0,0.581,0.212,0.841,0.636c0,0.615,0.027,0.923,0.082,0.923l-0.164-0.328
		c0.383,6.016,0.574,11.067,0.574,15.155c0.164,1.326,0.246,3.165,0.246,5.517v6.727h3.917c0.314,0,0.567,0.191,0.759,0.574v0.328
		c0,0.492-0.636,0.738-1.907,0.738h-3.773c-0.287,0-0.567-0.212-0.841-0.636v-0.595c0-0.656,0.014-0.984,0.041-0.984l-0.041-0.554
		v-6.009c-0.219-7.191-0.438-13.173-0.656-17.944l-0.246-2.769C332.577,358.636,332.939,358.376,333.5,358.376z"/>
</g>
<g>
	<path class="st5" d="M224.731,375.329c0,0.216-0.166,0.465-0.382,0.498l-2.57,0.397c-0.133,0.432-0.315,0.847-0.531,1.261
		c0.465,0.664,0.962,1.277,1.493,1.907c0.066,0.1,0.116,0.199,0.116,0.332c0,0.116-0.033,0.232-0.116,0.315
		c-0.332,0.447-2.189,2.472-2.671,2.472c-0.132,0-0.248-0.05-0.348-0.116l-1.907-1.493c-0.415,0.216-0.83,0.382-1.277,0.515
		c-0.083,0.846-0.166,1.758-0.382,2.57c-0.066,0.232-0.266,0.398-0.497,0.398h-3.086c-0.231,0-0.464-0.183-0.497-0.415l-0.382-2.537
		c-0.431-0.133-0.846-0.315-1.244-0.515l-1.957,1.477c-0.083,0.083-0.215,0.116-0.331,0.116c-0.133,0-0.249-0.05-0.349-0.133
		c-0.432-0.398-2.389-2.173-2.389-2.654c0-0.116,0.05-0.216,0.116-0.315c0.481-0.63,0.979-1.243,1.46-1.891
		c-0.232-0.447-0.432-0.896-0.581-1.36l-2.521-0.397c-0.232-0.033-0.398-0.249-0.398-0.481v-3.068c0-0.216,0.166-0.464,0.382-0.497
		l2.57-0.398c0.133-0.432,0.315-0.846,0.531-1.261c-0.465-0.663-0.962-1.277-1.493-1.907c-0.066-0.1-0.116-0.216-0.116-0.332
		s0.033-0.231,0.116-0.331c0.332-0.448,2.189-2.455,2.671-2.455c0.132,0,0.248,0.05,0.348,0.116l1.907,1.492
		c0.415-0.215,0.83-0.381,1.277-0.53c0.083-0.829,0.166-1.741,0.382-2.555c0.066-0.231,0.266-0.397,0.497-0.397h3.086
		c0.231,0,0.464,0.183,0.497,0.414l0.382,2.538c0.431,0.133,0.846,0.315,1.244,0.514l1.957-1.476c0.1-0.083,0.215-0.116,0.331-0.116
		c0.133,0,0.249,0.05,0.349,0.133c0.432,0.397,2.389,2.189,2.389,2.653c0,0.116-0.05,0.216-0.116,0.315
		c-0.481,0.646-0.979,1.244-1.443,1.891c0.216,0.448,0.415,0.896,0.564,1.36l2.521,0.382c0.232,0.05,0.398,0.265,0.398,0.497
		V375.329z M214.116,369.524c-2.339,0-4.246,1.907-4.246,4.246s1.907,4.246,4.246,4.246s4.246-1.907,4.246-4.246
		S216.455,369.524,214.116,369.524z M235.347,366.439c0,0.248-2.14,0.48-2.472,0.514c-0.133,0.315-0.298,0.598-0.497,0.862
		c0.149,0.332,0.846,1.99,0.846,2.289c0,0.05-0.017,0.083-0.066,0.116c-0.199,0.116-1.974,1.178-2.057,1.178
		c-0.216,0-1.46-1.658-1.625-1.907c-0.166,0.017-0.332,0.033-0.498,0.033s-0.332-0.017-0.498-0.033
		c-0.165,0.249-1.409,1.907-1.625,1.907c-0.083,0-1.857-1.062-2.057-1.178c-0.05-0.033-0.066-0.083-0.066-0.116
		c0-0.282,0.696-1.957,0.846-2.289c-0.199-0.265-0.364-0.547-0.497-0.862c-0.332-0.033-2.472-0.266-2.472-0.514v-2.322
		c0-0.249,2.14-0.481,2.472-0.515c0.133-0.298,0.298-0.597,0.497-0.862c-0.149-0.332-0.846-2.007-0.846-2.289
		c0-0.033,0.017-0.083,0.066-0.116c0.199-0.1,1.974-1.161,2.057-1.161c0.216,0,1.46,1.643,1.625,1.892
		c0.166-0.017,0.332-0.033,0.498-0.033s0.332,0.017,0.498,0.033c0.464-0.647,0.962-1.294,1.525-1.858l0.1-0.033
		c0.083,0,1.857,1.046,2.057,1.161c0.05,0.033,0.066,0.083,0.066,0.116c0,0.299-0.696,1.957-0.846,2.289
		c0.199,0.266,0.364,0.564,0.497,0.862c0.332,0.033,2.472,0.266,2.472,0.515V366.439z M235.347,383.424
		c0,0.248-2.14,0.48-2.472,0.514c-0.133,0.315-0.298,0.598-0.497,0.862c0.149,0.332,0.846,1.99,0.846,2.289
		c0,0.05-0.017,0.083-0.066,0.116c-0.199,0.116-1.974,1.178-2.057,1.178c-0.216,0-1.46-1.658-1.625-1.907
		c-0.166,0.017-0.332,0.033-0.498,0.033s-0.332-0.017-0.498-0.033c-0.165,0.249-1.409,1.907-1.625,1.907
		c-0.083,0-1.857-1.062-2.057-1.178c-0.05-0.033-0.066-0.083-0.066-0.116c0-0.282,0.696-1.957,0.846-2.289
		c-0.199-0.265-0.364-0.547-0.497-0.862c-0.332-0.033-2.472-0.266-2.472-0.514v-2.322c0-0.249,2.14-0.481,2.472-0.515
		c0.133-0.298,0.298-0.597,0.497-0.862c-0.149-0.332-0.846-2.007-0.846-2.289c0-0.033,0.017-0.083,0.066-0.116
		c0.199-0.1,1.974-1.161,2.057-1.161c0.216,0,1.46,1.643,1.625,1.892c0.166-0.017,0.332-0.033,0.498-0.033s0.332,0.017,0.498,0.033
		c0.464-0.647,0.962-1.294,1.525-1.858l0.1-0.033c0.083,0,1.857,1.046,2.057,1.161c0.05,0.033,0.066,0.083,0.066,0.116
		c0,0.299-0.696,1.957-0.846,2.289c0.199,0.266,0.364,0.564,0.497,0.862c0.332,0.033,2.472,0.266,2.472,0.515V383.424z
		 M228.977,363.155c-1.161,0-2.123,0.962-2.123,2.123c0,1.178,0.962,2.123,2.123,2.123c1.178,0,2.123-0.962,2.123-2.123
		S230.139,363.155,228.977,363.155z M228.977,380.14c-1.161,0-2.123,0.962-2.123,2.123c0,1.178,0.962,2.123,2.123,2.123
		c1.178,0,2.123-0.962,2.123-2.123S230.139,380.14,228.977,380.14z"/>
</g>
<path class="st4" d="M855.614,218.881H734.892c-23.327,0-42.238,18.91-42.238,42.238v0c0,23.327,18.91,42.238,42.238,42.238h120.722
	c23.327,0,42.238-18.91,42.238-42.238v0C897.852,237.791,878.941,218.881,855.614,218.881z"/>
<path class="st5" d="M854.934,300.124H735.056c-21.653,0-39.269-17.616-39.269-39.268s17.616-39.267,39.269-39.267h119.878
	c21.651,0,39.267,17.615,39.267,39.267S876.585,300.124,854.934,300.124z M735.056,222.795c-20.987,0-38.062,17.074-38.062,38.06
	s17.075,38.061,38.062,38.061h119.878c20.987,0,38.06-17.074,38.06-38.061s-17.074-38.06-38.06-38.06H735.056z"/>
<g>
	<path class="st5" d="M755.479,229.307l0.472,0.595v0.267c0,0.191-0.246,0.458-0.738,0.8h-1.005c-1.217,0-2.037,0.444-2.461,1.333
		c-0.424,1.148-0.636,2.434-0.636,3.855c0,0.861,0.376,2.283,1.128,4.266c0.246,0.492,1.695,1.941,4.348,4.348
		c1.436,2.051,2.153,4.067,2.153,6.05c0,1.559-0.335,3.083-1.005,4.573c-0.355,0.807-1.258,1.477-2.707,2.01
		c-0.547,0.287-1.012,0.431-1.395,0.431c-0.52,0-0.882-0.219-1.087-0.656v-0.287c0-0.396,0.424-0.636,1.271-0.718
		c1.559-0.588,2.338-1.196,2.338-1.825c0.492-0.984,0.738-2.235,0.738-3.753c0-1.982-0.889-3.917-2.666-5.804
		c-1.477-1.121-2.584-2.208-3.322-3.261c-0.533-0.574-1.053-2.044-1.559-4.409c0-0.287-0.027-0.649-0.082-1.087
		c0-1.818,0.342-3.438,1.025-4.86C751.152,229.929,752.881,229.307,755.479,229.307z"/>
	<path class="st5" d="M766.122,228.876c1.859,0,3.261,3.814,4.204,11.443c0.055,0.725,0.082,1.641,0.082,2.748v0.328
		c0,0.219-0.021,0.438-0.062,0.656c0.041,0.055,0.062,0.273,0.062,0.656v0.082c0,0.383-0.021,0.602-0.062,0.656
		c0.041,0.219,0.062,0.355,0.062,0.41c0,5.879-0.861,9.543-2.584,10.992c-0.697,0.273-1.183,0.41-1.456,0.41h-0.656
		c-2.229-0.533-3.603-3.206-4.122-8.019l-0.246-3.363c0-7.766,0.991-13.187,2.974-16.263
		C764.974,229.122,765.576,228.876,766.122,228.876z M763.19,245.61c0,3.049,0.403,5.715,1.21,7.998
		c0.67,1.34,1.189,2.01,1.559,2.01h0.082c0.82,0,1.367-0.663,1.641-1.989c0.588-1.395,0.882-4.396,0.882-9.003v-1.641
		c0-3.186-0.567-6.843-1.702-10.972c-0.369-0.82-0.643-1.292-0.82-1.415c-0.301,0.109-0.492,0.287-0.574,0.533
		C763.949,234.345,763.19,239.171,763.19,245.61z"/>
	<path class="st5" d="M779.576,229.204h0.636c1.285,0.232,1.928,0.725,1.928,1.477c0,0.219-0.226,0.465-0.677,0.738h-0.759
		c-0.355-0.438-0.615-0.656-0.779-0.656c-1.094,0.383-1.641,0.711-1.641,0.984c-1.094,2.078-1.641,4.895-1.641,8.449v1.395
		c0,2.42,0.328,5.325,0.984,8.716c0.383,2.447,0.896,4.081,1.538,4.901c0.725,0.629,1.333,0.957,1.825,0.984
		c0.602,0,1.374-0.602,2.317-1.805h0.533c0.314,0,0.567,0.191,0.759,0.574v0.246c0,0.629-0.677,1.374-2.03,2.235
		c-0.615,0.26-1.176,0.39-1.682,0.39h-0.123c-0.943-0.109-1.9-0.588-2.871-1.436c-1.053-0.834-1.948-4.026-2.687-9.577
		c-0.273-1.189-0.41-3.151-0.41-5.886v-0.492c0.096-5.66,1.066-9.188,2.912-10.582C778.625,229.423,779.247,229.204,779.576,229.204
		z"/>
	<path class="st5" d="M789.891,229.122h0.328c0.725,0,1.087,1.586,1.087,4.758v1.066c0,1.08-0.164,3.849-0.492,8.306
		c0,0.178,0.027,0.376,0.082,0.595c-0.055,2.885-0.082,5.168-0.082,6.85v5.332c0,0.082,0.055,0.349,0.164,0.8
		c-0.109,0.67-0.39,1.005-0.841,1.005h-0.328c-0.561,0-0.841-0.875-0.841-2.625c0-9.502,0.164-16.044,0.492-19.626v-2.276
		c0-1.258-0.082-2.399-0.246-3.425C789.214,229.648,789.44,229.395,789.891,229.122z"/>
	<path class="st5" d="M799.776,229.019h0.205c0.984,0.451,1.771,1.518,2.358,3.199c1.531,4.73,2.659,10.76,3.384,18.088
		c0.479,2.379,0.718,4.498,0.718,6.357c-0.164,0.41-0.636,0.615-1.415,0.615c-0.328-0.629-0.711-2.919-1.148-6.87
		c-0.123-0.424-0.383-2.14-0.779-5.147l-0.185-0.021c-2.598,0.246-3.896,0.41-3.896,0.492v3.199l-0.554,7.506
		c0.123,0.178,0.185,0.383,0.185,0.615s-0.239,0.492-0.718,0.779c-0.93,0-1.395-0.444-1.395-1.333
		c0.424-5.77,0.636-9.229,0.636-10.377c-0.055-0.752-0.082-1.518-0.082-2.297c0.027-3.951,0.355-8.135,0.984-12.551
		C798.388,229.771,798.956,229.019,799.776,229.019z M800.145,231.132c-0.697,2.68-1.046,6.569-1.046,11.669
		c-0.055,0-0.082,0.526-0.082,1.579v-0.308c1.326-0.369,2.646-0.554,3.958-0.554v0.308c0-1.641-0.902-5.558-2.707-11.751
		C799.926,231.337,799.885,231.022,800.145,231.132z"/>
	<path class="st5" d="M812.921,227.563h0.082c0.301,0,0.581,0.212,0.841,0.636c0,0.615,0.027,0.923,0.082,0.923l-0.164-0.328
		c0.383,6.016,0.574,11.067,0.574,15.155c0.164,1.326,0.246,3.165,0.246,5.517v6.727h3.917c0.314,0,0.567,0.191,0.759,0.574v0.328
		c0,0.492-0.636,0.738-1.907,0.738h-3.773c-0.287,0-0.567-0.212-0.841-0.636v-0.595c0-0.656,0.014-0.984,0.041-0.984l-0.041-0.554
		v-6.009c-0.219-7.191-0.438-13.173-0.656-17.944l-0.246-2.769C811.998,227.823,812.361,227.563,812.921,227.563z"/>
	<path class="st5" d="M838.946,234.003c1.791,0.246,2.687,1.039,2.687,2.379v0.246c0,0.711-0.875,2.304-2.625,4.778v-0.103
		c0.752,1.545,1.88,3.295,3.384,5.25h-0.677c0.287-2.68,0.827-4.02,1.62-4.02h0.246c0.287,0,0.581,0.239,0.882,0.718l-0.554,1.189
		c-0.369,2.023-0.554,3.213-0.554,3.568c2.037,2.693,3.213,4.313,3.527,4.86v0.164c0,0.219-0.226,0.465-0.677,0.738
		c-0.643,0-1.278-0.526-1.907-1.579c-0.246-0.246-0.745-0.889-1.497-1.928c-0.643,2.229-1.887,3.343-3.732,3.343
		c-1.654,0-2.96-0.711-3.917-2.133c-0.355-0.793-0.533-1.531-0.533-2.215c0-2.529,0.772-5.147,2.317-7.854
		c-1.545-2.242-2.317-3.753-2.317-4.532v-0.246c0-1.23,1.012-2.044,3.035-2.44C837.941,234.064,838.372,234.003,838.946,234.003z
		 M836.464,236.71c0,0.697,0.608,1.818,1.825,3.363h-0.513c1.34-1.982,2.01-3.131,2.01-3.445v-0.062
		c-0.082-0.615-0.342-0.923-0.779-0.923C837.312,235.808,836.464,236.163,836.464,236.71z M837.961,243.231
		c-0.998,2.051-1.497,4.088-1.497,6.111c0,1.518,0.882,2.393,2.646,2.625c1.039,0,1.805-1.258,2.297-3.773
		C840.272,246.813,839.123,245.159,837.961,243.231z"/>
	<path class="st5" d="M754.125,263.112l0.185,0.103c-0.383,0-0.574-0.041-0.574-0.123c2.434,0.219,3.65,0.561,3.65,1.025v0.144
		c-0.178,0.506-0.499,0.759-0.964,0.759l-2.379-0.246c-0.109,0-0.458,0.021-1.046,0.062l0.041,0.574c0,0.902,0.13,4.382,0.39,10.438
		h0.082c0.396,0,0.738-0.027,1.025-0.082c1.285,0.109,2.297,0.164,3.035,0.164l0.472,0.636v0.349c0,0.438-0.28,0.656-0.841,0.656
		c-0.492,0-1.285-0.055-2.379-0.164c-0.725,0.055-1.183,0.082-1.374,0.082v-0.082c0,3.855,0.185,8.176,0.554,12.961
		c0.068,0,0.103,0.021,0.103,0.062c1.709-0.096,2.803-0.144,3.281-0.144c0.424,0.137,0.725,0.383,0.902,0.738v0.164
		c0,0.219-0.219,0.465-0.656,0.738c-2.174,0.055-3.479,0.109-3.917,0.164c-1.025,0-1.538-0.485-1.538-1.456
		c-0.383-5.223-0.574-9.577-0.574-13.063v-2.625c-0.273-4.812-0.41-8.053-0.41-9.721c-0.164-0.82-0.246-1.333-0.246-1.538
		l0.636-0.472h1.107C752.991,263.215,753.469,263.181,754.125,263.112z"/>
	<path class="st5" d="M762.431,262.948c0.643,0.205,2.543,4.601,5.701,13.187h-0.677c0-0.355,1.395-4.58,4.184-12.674h0.984
		l0.369,0.718l0.021,0.902c-0.15,4.895-0.226,9.03-0.226,12.407c0,1.299,0.246,6.07,0.738,14.314l-0.882,0.431
		c-0.738,0-1.271-4.594-1.6-13.781v-9.618h0.677c-1.941,6.029-3.124,9.215-3.548,9.557c-0.875-0.055-2.577-3.644-5.106-10.767h0.636
		v-0.164l1.21,23.851l-0.841,0.451c-0.766,0-1.148-0.301-1.148-0.902c-0.479-14.287-0.964-23.427-1.456-27.419L762.431,262.948z"/>
	<path class="st5" d="M780.991,263.276c1.859,0,3.261,3.814,4.204,11.443c0.055,0.725,0.082,1.641,0.082,2.748v0.328
		c0,0.219-0.021,0.438-0.062,0.656c0.041,0.055,0.062,0.273,0.062,0.656v0.082c0,0.383-0.021,0.602-0.062,0.656
		c0.041,0.219,0.062,0.355,0.062,0.41c0,5.879-0.861,9.543-2.584,10.992c-0.697,0.273-1.183,0.41-1.456,0.41h-0.656
		c-2.229-0.533-3.603-3.206-4.122-8.019l-0.246-3.363c0-7.766,0.991-13.187,2.974-16.263
		C779.842,263.522,780.444,263.276,780.991,263.276z M778.058,280.011c0,3.049,0.403,5.715,1.21,7.998
		c0.67,1.34,1.189,2.01,1.559,2.01h0.082c0.82,0,1.367-0.663,1.641-1.989c0.588-1.395,0.882-4.396,0.882-9.003v-1.641
		c0-3.186-0.567-6.843-1.702-10.972c-0.369-0.82-0.643-1.292-0.82-1.415c-0.301,0.109-0.492,0.287-0.574,0.533
		C778.817,268.745,778.058,273.571,778.058,280.011z"/>
	<path class="st5" d="M798.115,264.671l0.533,0.615v0.328c0,0.506-0.937,0.759-2.81,0.759h-2.297c0.164,0,0.253-0.021,0.267-0.062
		l0.164,3.712c-0.055,0.342-0.082,0.526-0.082,0.554c0.492,8.271,0.738,14.171,0.738,17.698c0.055,0.096,0.082,0.232,0.082,0.41
		c-0.055,0.082-0.082,0.109-0.082,0.082l0.103,0.554c-0.191,0.438-0.451,0.656-0.779,0.656h-0.328c-0.232,0-0.513-0.191-0.841-0.574
		c0-0.191,0.027-0.499,0.082-0.923c0-1.162-0.246-7.062-0.738-17.698c0-1.723-0.048-3.227-0.144-4.512l0.185,0.103h-0.082
		l-2.871,0.246c-0.355-0.383-0.533-0.738-0.533-1.066c0-0.232,0.26-0.479,0.779-0.738c0.479,0.123,0.711,0.185,0.697,0.185
		c1.053-0.096,1.798-0.144,2.235-0.144h3.363C796.426,264.855,797.212,264.794,798.115,264.671z"/>
	<path class="st5" d="M804.349,263.522h0.328c0.725,0,1.087,1.586,1.087,4.758v1.066c0,1.08-0.164,3.849-0.492,8.306
		c0,0.178,0.027,0.376,0.082,0.595c-0.055,2.885-0.082,5.168-0.082,6.85v5.332c0,0.082,0.055,0.349,0.164,0.8
		c-0.109,0.67-0.39,1.005-0.841,1.005h-0.328c-0.561,0-0.841-0.875-0.841-2.625c0-9.502,0.164-16.044,0.492-19.626v-2.276
		c0-1.258-0.082-2.399-0.246-3.425C803.672,264.049,803.898,263.796,804.349,263.522z"/>
	<path class="st5" d="M815.075,263.276c1.859,0,3.261,3.814,4.204,11.443c0.055,0.725,0.082,1.641,0.082,2.748v0.328
		c0,0.219-0.021,0.438-0.062,0.656c0.041,0.055,0.062,0.273,0.062,0.656v0.082c0,0.383-0.021,0.602-0.062,0.656
		c0.041,0.219,0.062,0.355,0.062,0.41c0,5.879-0.861,9.543-2.584,10.992c-0.697,0.273-1.183,0.41-1.456,0.41h-0.656
		c-2.229-0.533-3.603-3.206-4.122-8.019l-0.246-3.363c0-7.766,0.991-13.187,2.974-16.263
		C813.926,263.522,814.528,263.276,815.075,263.276z M812.142,280.011c0,3.049,0.403,5.715,1.21,7.998
		c0.67,1.34,1.189,2.01,1.559,2.01h0.082c0.82,0,1.367-0.663,1.641-1.989c0.588-1.395,0.882-4.396,0.882-9.003v-1.641
		c0-3.186-0.567-6.843-1.702-10.972c-0.369-0.82-0.643-1.292-0.82-1.415c-0.301,0.109-0.492,0.287-0.574,0.533
		C812.901,268.745,812.142,273.571,812.142,280.011z"/>
	<path class="st5" d="M824.611,263.092c0.574,0,1.982,3.842,4.225,11.525c0.314,1.75,1.6,6.063,3.855,12.94h-0.677v-0.287
		c-0.314-6.645-0.472-10.377-0.472-11.197c0-0.246,0.034-1.08,0.103-2.502c-0.014-0.15-0.021-0.479-0.021-0.984
		c0.109-1.08,0.164-1.935,0.164-2.563v-5.845c0.068-0.574,0.438-0.861,1.107-0.861l0.861,0.451c-0.164,3.24-0.246,5.64-0.246,7.198
		v2.317c0,4.758,0.15,10.972,0.451,18.642l-0.82,0.41c-0.684,0-2.837-6.166-6.46-18.498l-2.153-7.342l0.759,1.23l0.062-1.189
		c0.096,1.135,0.144,2.037,0.144,2.707l0.021,0.697c-0.109,3.035-0.164,5.161-0.164,6.378c0,6.111,0.246,11.293,0.738,15.545h-1.025
		c-0.643,0-0.964-0.287-0.964-0.861c-0.314-4.771-0.472-9.044-0.472-12.817v-14.232C823.722,263.379,824.05,263.092,824.611,263.092
		z"/>
	<path class="st5" d="M841.017,263.42h0.205c0.984,0.451,1.771,1.518,2.358,3.199c1.531,4.73,2.659,10.76,3.384,18.088
		c0.479,2.379,0.718,4.498,0.718,6.357c-0.164,0.41-0.636,0.615-1.415,0.615c-0.328-0.629-0.711-2.919-1.148-6.87
		c-0.123-0.424-0.383-2.14-0.779-5.147l-0.185-0.021c-2.598,0.246-3.896,0.41-3.896,0.492v3.199l-0.554,7.506
		c0.123,0.178,0.185,0.383,0.185,0.615s-0.239,0.492-0.718,0.779c-0.93,0-1.395-0.444-1.395-1.333
		c0.424-5.77,0.636-9.229,0.636-10.377c-0.055-0.752-0.082-1.518-0.082-2.297c0.027-3.951,0.355-8.135,0.984-12.551
		C839.629,264.172,840.197,263.42,841.017,263.42z M841.386,265.532c-0.697,2.68-1.046,6.569-1.046,11.669
		c-0.055,0-0.082,0.526-0.082,1.579v-0.308c1.326-0.369,2.646-0.554,3.958-0.554v0.308c0-1.641-0.902-5.558-2.707-11.751
		C841.167,265.737,841.126,265.423,841.386,265.532z"/>
	<path class="st5" d="M854.163,261.964h0.082c0.301,0,0.581,0.212,0.841,0.636c0,0.615,0.027,0.923,0.082,0.923l-0.164-0.328
		c0.383,6.016,0.574,11.067,0.574,15.155c0.164,1.326,0.246,3.165,0.246,5.517v6.727h3.917c0.314,0,0.567,0.191,0.759,0.574v0.328
		c0,0.492-0.636,0.738-1.907,0.738h-3.773c-0.287,0-0.567-0.212-0.841-0.636v-0.595c0-0.656,0.014-0.984,0.041-0.984l-0.041-0.554
		v-6.009c-0.219-7.191-0.438-13.173-0.656-17.944l-0.246-2.769C853.24,262.224,853.602,261.964,854.163,261.964z"/>
</g>
<g>
	<path class="st5" d="M721.945,266.34c-1.012,0-1.99-0.1-2.919-0.266c-1.377,0.979-2.936,1.691-4.611,2.123
		c-0.447,0.116-0.929,0.199-1.427,0.266c-0.017,0-0.033,0-0.05,0c-0.248,0-0.48-0.199-0.53-0.481
		c-0.066-0.315,0.149-0.514,0.332-0.729c0.646-0.729,1.376-1.377,1.94-2.754c-2.688-1.559-4.412-3.964-4.412-6.65
		c0-4.694,5.225-8.492,11.677-8.492s11.677,3.798,11.677,8.492C733.622,262.541,728.397,266.34,721.945,266.34z M735.579,268.744
		c0.564,1.377,1.294,2.024,1.94,2.754c0.183,0.216,0.398,0.414,0.332,0.729c-0.066,0.299-0.315,0.515-0.58,0.481
		c-0.498-0.066-0.979-0.149-1.427-0.266c-1.676-0.432-3.234-1.145-4.611-2.123c-0.929,0.166-1.907,0.266-2.919,0.266
		c-3.002,0-5.756-0.829-7.829-2.189c0.481,0.033,0.979,0.066,1.46,0.066c3.566,0,6.933-1.028,9.504-2.887
		c2.77-2.023,4.296-4.76,4.296-7.729c0-0.862-0.133-1.709-0.382-2.521c2.804,1.543,4.628,3.997,4.628,6.768
		C739.991,264.797,738.266,267.185,735.579,268.744z"/>
</g>
<path class="st2" d="M178.716,224.003H47.986c-23.327,0-42.238,18.91-42.238,42.238v0c0,23.327,18.91,42.238,42.238,42.238h130.73
	c23.327,0,42.238-18.91,42.238-42.238v0C220.953,242.913,202.043,224.003,178.716,224.003z"/>
<path class="st5" d="M178.035,305.246H48.149c-21.653,0-39.269-17.616-39.269-39.268c0-21.652,17.616-39.267,39.269-39.267h129.886
	c21.651,0,39.267,17.615,39.267,39.267C217.302,287.63,199.687,305.246,178.035,305.246z M48.149,227.918
	c-20.987,0-38.062,17.074-38.062,38.06c0,20.987,17.075,38.061,38.062,38.061h129.886c20.987,0,38.06-17.074,38.06-38.061
	c0-20.987-17.074-38.06-38.06-38.06H48.149z"/>
<g>
	<path class="st5" d="M68.573,234.429l0.472,0.595v0.267c0,0.191-0.246,0.458-0.738,0.8h-1.005c-1.217,0-2.037,0.444-2.461,1.333
		c-0.424,1.148-0.636,2.434-0.636,3.855c0,0.861,0.376,2.283,1.128,4.266c0.246,0.492,1.695,1.941,4.348,4.348
		c1.436,2.051,2.153,4.067,2.153,6.05c0,1.559-0.335,3.083-1.005,4.573c-0.355,0.807-1.258,1.477-2.707,2.01
		c-0.547,0.287-1.012,0.431-1.395,0.431c-0.52,0-0.882-0.219-1.087-0.656v-0.287c0-0.396,0.424-0.636,1.271-0.718
		c1.559-0.588,2.338-1.196,2.338-1.825c0.492-0.984,0.738-2.235,0.738-3.753c0-1.982-0.889-3.917-2.666-5.804
		c-1.477-1.121-2.584-2.208-3.322-3.261c-0.533-0.574-1.053-2.044-1.559-4.409c0-0.287-0.027-0.649-0.082-1.087
		c0-1.818,0.342-3.438,1.025-4.86C64.246,235.051,65.976,234.429,68.573,234.429z"/>
	<path class="st5" d="M79.012,233.834l0.185,0.103c-0.383,0-0.574-0.041-0.574-0.123c2.434,0.219,3.65,0.561,3.65,1.025v0.144
		c-0.178,0.506-0.499,0.759-0.964,0.759l-2.379-0.246c-0.109,0-0.458,0.021-1.046,0.062l0.041,0.574c0,0.902,0.13,4.382,0.39,10.438
		h0.082c0.396,0,0.738-0.027,1.025-0.082c1.285,0.109,2.297,0.164,3.035,0.164l0.472,0.636v0.349c0,0.438-0.28,0.656-0.841,0.656
		c-0.492,0-1.285-0.055-2.379-0.164c-0.725,0.055-1.183,0.082-1.374,0.082v-0.082c0,3.855,0.185,8.176,0.554,12.961
		c0.068,0,0.103,0.021,0.103,0.062c1.709-0.096,2.803-0.144,3.281-0.144c0.424,0.137,0.725,0.383,0.902,0.738v0.164
		c0,0.219-0.219,0.465-0.656,0.738c-2.174,0.055-3.479,0.109-3.917,0.164c-1.025,0-1.538-0.485-1.538-1.456
		c-0.383-5.223-0.574-9.577-0.574-13.063v-2.625c-0.273-4.812-0.41-8.053-0.41-9.721c-0.164-0.82-0.246-1.333-0.246-1.538
		l0.636-0.472h1.107C77.877,233.936,78.355,233.902,79.012,233.834z"/>
	<path class="st5" d="M88.158,232.685h0.082c0.301,0,0.581,0.212,0.841,0.636c0,0.615,0.027,0.923,0.082,0.923l-0.164-0.328
		c0.383,6.016,0.574,11.067,0.574,15.155c0.164,1.326,0.246,3.165,0.246,5.517v6.727h3.917c0.314,0,0.567,0.191,0.759,0.574v0.328
		c0,0.492-0.636,0.738-1.907,0.738h-3.773c-0.287,0-0.567-0.212-0.841-0.636v-0.595c0-0.656,0.014-0.984,0.041-0.984l-0.041-0.554
		v-6.009c-0.219-7.191-0.438-13.173-0.656-17.944l-0.246-2.769C87.235,232.945,87.598,232.685,88.158,232.685z"/>
	<path class="st5" d="M100.299,234.306c2.229,0.109,3.965,0.164,5.209,0.164l0.369,0.554c0,0.725-0.342,1.087-1.025,1.087
		c-1.408-0.055-2.782-0.082-4.122-0.082l0.39,9.844v0.062l0.041,0.533c0.506-0.068,1.169-0.103,1.989-0.103h2.133
		c0.41,0,0.67,0.349,0.779,1.046l-0.738,0.595h-2.502c-1.025,0-1.538-0.027-1.538-0.082v0.902c0,0.793,0.055,4.074,0.164,9.844
		v0.882l0.082,0.492c0,0.342-0.014,0.513-0.041,0.513l0.041,0.39v0.923c0,0.219-0.205,0.438-0.615,0.656h-0.39
		c-0.301,0-0.581-0.212-0.841-0.636l-0.308-16.919l-0.349-0.82l0.164,0.328c-0.219-4.334-0.328-7.567-0.328-9.7
		C99.301,234.463,99.779,234.306,100.299,234.306z"/>
	<path class="st5" d="M115.7,247.164c1.859,0.178,2.789,0.506,2.789,0.984v0.246c0,0.219-0.246,0.479-0.738,0.779
		c-1.066-0.246-1.839-0.369-2.317-0.369c-0.438,0-1.757,0.15-3.958,0.451l-0.41-0.595v-0.431c0-0.533,1.012-0.854,3.035-0.964
		C114.101,247.198,114.634,247.164,115.7,247.164z"/>
	<path class="st5" d="M130.138,231.804h0.513c0.465,0.232,0.697,0.506,0.697,0.82c0,2.584-0.055,4.58-0.164,5.988l0.164,8.429
		c0.109,0.191,0.164,0.376,0.164,0.554c-0.137,0.41-0.185,0.615-0.144,0.615c0.096,2.27,0.171,6.597,0.226,12.981
		c-0.055,0.301-0.082,0.902-0.082,1.805l-0.574,0.39h-0.636l-0.636-0.492c0-0.711,0.027-1.237,0.082-1.579
		c-0.055-7.465-0.13-11.799-0.226-13.002c-2.174,0.041-3.281,0.068-3.322,0.082c0.096,0.834,0.144,1.757,0.144,2.769
		c0,2.188-0.027,4.102-0.082,5.742c0.055,0.93,0.082,2.803,0.082,5.619c-0.41,0.246-0.745,0.369-1.005,0.369
		c-0.301,0-0.581-0.219-0.841-0.656v-0.82c0-2.229-0.027-3.732-0.082-4.512c0.055-1.34,0.082-2.98,0.082-4.922v-1.23
		c-0.164-2.666-0.246-4.525-0.246-5.578c0.164-6.098,0.246-9.967,0.246-11.607c-0.055-0.219-0.082-0.485-0.082-0.8l0.636-0.472
		h0.533c0.506,0.301,0.759,0.656,0.759,1.066c0,1.025-0.082,5.127-0.246,12.305v1.395l-0.144-0.287
		c0.096-0.027,1.271-0.062,3.527-0.103c-0.041-1.723-0.062-3.015-0.062-3.876v-3.773c0-0.068-0.041-0.171-0.123-0.308l0.123-0.267
		c0.055-2.57,0.082-4.628,0.082-6.173L130.138,231.804z"/>
	<path class="st5" d="M140.125,233.834l0.185,0.103c-0.383,0-0.574-0.041-0.574-0.123c2.434,0.219,3.65,0.561,3.65,1.025v0.144
		c-0.178,0.506-0.499,0.759-0.964,0.759l-2.379-0.246c-0.109,0-0.458,0.021-1.046,0.062l0.041,0.574c0,0.902,0.13,4.382,0.39,10.438
		h0.082c0.396,0,0.738-0.027,1.025-0.082c1.285,0.109,2.297,0.164,3.035,0.164l0.472,0.636v0.349c0,0.438-0.28,0.656-0.841,0.656
		c-0.492,0-1.285-0.055-2.379-0.164c-0.725,0.055-1.183,0.082-1.374,0.082v-0.082c0,3.855,0.185,8.176,0.554,12.961
		c0.068,0,0.103,0.021,0.103,0.062c1.709-0.096,2.803-0.144,3.281-0.144c0.424,0.137,0.725,0.383,0.902,0.738v0.164
		c0,0.219-0.219,0.465-0.656,0.738c-2.174,0.055-3.479,0.109-3.917,0.164c-1.025,0-1.538-0.485-1.538-1.456
		c-0.383-5.223-0.574-9.577-0.574-13.063v-2.625c-0.273-4.812-0.41-8.053-0.41-9.721c-0.164-0.82-0.246-1.333-0.246-1.538
		l0.636-0.472h1.107C138.99,233.936,139.469,233.902,140.125,233.834z"/>
	<path class="st5" d="M149.271,232.685h0.082c0.301,0,0.581,0.212,0.841,0.636c0,0.615,0.027,0.923,0.082,0.923l-0.164-0.328
		c0.383,6.016,0.574,11.067,0.574,15.155c0.164,1.326,0.246,3.165,0.246,5.517v6.727h3.917c0.314,0,0.567,0.191,0.759,0.574v0.328
		c0,0.492-0.636,0.738-1.907,0.738h-3.773c-0.287,0-0.567-0.212-0.841-0.636v-0.595c0-0.656,0.014-0.984,0.041-0.984l-0.041-0.554
		v-6.009c-0.219-7.191-0.438-13.173-0.656-17.944l-0.246-2.769C148.349,232.945,148.711,232.685,149.271,232.685z"/>
	<path class="st5" d="M161.351,233.342c2.912,0,4.881,1.278,5.906,3.835c0.178,0.561,0.294,1.217,0.349,1.969
		c0,3.459-0.608,7.253-1.825,11.382c-0.629,1.08-1.531,1.914-2.707,2.502c-0.424,0.014-0.636-0.041-0.636-0.164v0.082
		c0,0.711,0.027,1.312,0.082,1.805c-0.055,0.492-0.082,0.766-0.082,0.82c0.164,3.09,0.246,4.758,0.246,5.004
		c0.164,0.027,0.246,0.355,0.246,0.984v0.308c-0.219,0.574-0.513,0.937-0.882,1.087h-0.287c-0.287,0-0.567-0.212-0.841-0.636v-0.677
		v-0.492c-0.041-0.232-0.096-0.8-0.164-1.702c0-0.342,0.021-0.513,0.062-0.513l-0.226-3.035c0.055-0.561,0.082-0.971,0.082-1.23
		c-0.055-0.998-0.082-1.552-0.082-1.661c-0.219-0.109-0.328-0.335-0.328-0.677c0.123-0.465,0.219-0.697,0.287-0.697
		c-0.082-1.162-0.123-1.9-0.123-2.215l0.39-14.52c-0.096,0-0.144-0.191-0.144-0.574v-0.246
		C160.674,233.861,160.899,233.615,161.351,233.342z M162.663,235.085l-0.39,14.335c0.055,1.148,0.082,1.866,0.082,2.153
		l-0.205-0.103c0.369,0,0.827-0.287,1.374-0.861c0.861-0.547,1.579-3.821,2.153-9.823c0.055-0.984,0.082-1.634,0.082-1.948
		c0-1.299-0.738-2.468-2.215-3.507C163.148,235.194,162.854,235.112,162.663,235.085z"/>
	<path class="st5" d="M68.389,273.525c1.791,0.246,2.687,1.039,2.687,2.379v0.246c0,0.711-0.875,2.304-2.625,4.778v-0.103
		c0.752,1.545,1.88,3.295,3.384,5.25h-0.677c0.287-2.68,0.827-4.02,1.62-4.02h0.246c0.287,0,0.581,0.239,0.882,0.718l-0.554,1.189
		c-0.369,2.023-0.554,3.213-0.554,3.568c2.037,2.693,3.213,4.313,3.527,4.86v0.164c0,0.219-0.226,0.465-0.677,0.738
		c-0.643,0-1.278-0.526-1.907-1.579c-0.246-0.246-0.745-0.889-1.497-1.928c-0.643,2.229-1.887,3.343-3.732,3.343
		c-1.654,0-2.96-0.711-3.917-2.133c-0.355-0.793-0.533-1.531-0.533-2.215c0-2.529,0.772-5.147,2.317-7.854
		c-1.545-2.242-2.317-3.753-2.317-4.532v-0.246c0-1.23,1.012-2.044,3.035-2.44C67.384,273.587,67.814,273.525,68.389,273.525z
		 M65.907,276.232c0,0.697,0.608,1.818,1.825,3.363H67.22c1.34-1.982,2.01-3.131,2.01-3.445v-0.062
		c-0.082-0.615-0.342-0.923-0.779-0.923C66.755,275.33,65.907,275.685,65.907,276.232z M67.404,282.754
		c-0.998,2.051-1.497,4.088-1.497,6.111c0,1.518,0.882,2.393,2.646,2.625c1.039,0,1.805-1.258,2.297-3.773
		C69.715,286.336,68.566,284.682,67.404,282.754z"/>
	<path class="st5" d="M92.588,268.542h0.205c0.984,0.451,1.771,1.518,2.358,3.199c1.531,4.73,2.659,10.76,3.384,18.088
		c0.479,2.379,0.718,4.498,0.718,6.357c-0.164,0.41-0.636,0.615-1.415,0.615c-0.328-0.629-0.711-2.919-1.148-6.87
		c-0.123-0.424-0.383-2.14-0.779-5.147l-0.185-0.021c-2.598,0.246-3.896,0.41-3.896,0.492v3.199l-0.554,7.506
		c0.123,0.178,0.185,0.383,0.185,0.615s-0.239,0.492-0.718,0.779c-0.93,0-1.395-0.444-1.395-1.333
		c0.424-5.77,0.636-9.229,0.636-10.377c-0.055-0.752-0.082-1.518-0.082-2.297c0.027-3.951,0.355-8.135,0.984-12.551
		C91.2,269.294,91.768,268.542,92.588,268.542z M92.957,270.654c-0.697,2.68-1.046,6.569-1.046,11.669
		c-0.055,0-0.082,0.526-0.082,1.579v-0.308c1.326-0.369,2.646-0.554,3.958-0.554v0.308c0-1.641-0.902-5.558-2.707-11.751
		C92.738,270.859,92.697,270.545,92.957,270.654z"/>
	<path class="st5" d="M104.359,267.168h0.697c2.365,0.779,4.163,2.263,5.394,4.45c1.777,3.609,2.666,7.321,2.666,11.136v0.41
		c0,5.469-2.017,9.96-6.05,13.474c-0.629,0.205-1.053,0.308-1.271,0.308c-0.465,0-0.752-0.595-0.861-1.784l0.082-0.164
		c-0.15-1.203-0.26-3.097-0.328-5.681h-0.144l0.164,0.328v-0.164c0-2.16,0.027-4.129,0.082-5.906L104.359,267.168z M106.308,269.424
		v-0.533c0.055,6.166,0.164,11.033,0.328,14.602c-0.055,1.463-0.082,2.967-0.082,4.512v0.984c0,2.064,0.075,3.931,0.226,5.599
		c0.697-0.602,1.572-1.757,2.625-3.466c1.244-2.734,1.866-5.305,1.866-7.711v-0.82c0-3.377-0.834-6.822-2.502-10.336
		C107.62,270.531,106.8,269.588,106.308,269.424z"/>
	<path class="st5" d="M120.294,268.542h0.205c0.984,0.451,1.771,1.518,2.358,3.199c1.531,4.73,2.659,10.76,3.384,18.088
		c0.479,2.379,0.718,4.498,0.718,6.357c-0.164,0.41-0.636,0.615-1.415,0.615c-0.328-0.629-0.711-2.919-1.148-6.87
		c-0.123-0.424-0.383-2.14-0.779-5.147l-0.185-0.021c-2.598,0.246-3.896,0.41-3.896,0.492v3.199l-0.554,7.506
		c0.123,0.178,0.185,0.383,0.185,0.615s-0.239,0.492-0.718,0.779c-0.93,0-1.395-0.444-1.395-1.333
		c0.424-5.77,0.636-9.229,0.636-10.377c-0.055-0.752-0.082-1.518-0.082-2.297c0.027-3.951,0.355-8.135,0.984-12.551
		C118.906,269.294,119.474,268.542,120.294,268.542z M120.663,270.654c-0.697,2.68-1.046,6.569-1.046,11.669
		c-0.055,0-0.082,0.526-0.082,1.579v-0.308c1.326-0.369,2.646-0.554,3.958-0.554v0.308c0-1.641-0.902-5.558-2.707-11.751
		C120.444,270.859,120.403,270.545,120.663,270.654z"/>
	<path class="st5" d="M133.727,267.742c2.912,0,4.881,1.278,5.906,3.835c0.178,0.561,0.294,1.217,0.349,1.969
		c0,3.459-0.608,7.253-1.825,11.382c-0.629,1.08-1.531,1.914-2.707,2.502c-0.424,0.014-0.636-0.041-0.636-0.164v0.082
		c0,0.711,0.027,1.312,0.082,1.805c-0.055,0.492-0.082,0.766-0.082,0.82c0.164,3.09,0.246,4.758,0.246,5.004
		c0.164,0.027,0.246,0.355,0.246,0.984v0.308c-0.219,0.574-0.513,0.937-0.882,1.087h-0.287c-0.287,0-0.567-0.212-0.841-0.636v-0.677
		v-0.492c-0.041-0.232-0.096-0.8-0.164-1.702c0-0.342,0.021-0.513,0.062-0.513l-0.226-3.035c0.055-0.561,0.082-0.971,0.082-1.23
		c-0.055-0.998-0.082-1.552-0.082-1.661c-0.219-0.109-0.328-0.335-0.328-0.677c0.123-0.465,0.219-0.697,0.287-0.697
		c-0.082-1.162-0.123-1.9-0.123-2.215l0.39-14.52c-0.096,0-0.144-0.191-0.144-0.574v-0.246
		C133.05,268.262,133.275,268.016,133.727,267.742z M135.039,269.485l-0.39,14.335c0.055,1.148,0.082,1.866,0.082,2.153
		l-0.205-0.103c0.369,0,0.827-0.287,1.374-0.861c0.861-0.547,1.579-3.821,2.153-9.823c0.055-0.984,0.082-1.634,0.082-1.948
		c0-1.299-0.738-2.468-2.215-3.507C135.524,269.595,135.23,269.513,135.039,269.485z"/>
	<path class="st5" d="M152.04,269.793l0.533,0.615v0.328c0,0.506-0.937,0.759-2.81,0.759h-2.297c0.164,0,0.253-0.021,0.267-0.062
		l0.164,3.712c-0.055,0.342-0.082,0.526-0.082,0.554c0.492,8.271,0.738,14.171,0.738,17.698c0.055,0.096,0.082,0.232,0.082,0.41
		c-0.055,0.082-0.082,0.109-0.082,0.082l0.103,0.554c-0.191,0.438-0.451,0.656-0.779,0.656h-0.328c-0.232,0-0.513-0.191-0.841-0.574
		c0-0.191,0.027-0.499,0.082-0.923c0-1.162-0.246-7.062-0.738-17.698c0-1.723-0.048-3.227-0.144-4.512l0.185,0.103h-0.082
		l-2.871,0.246c-0.355-0.383-0.533-0.738-0.533-1.066c0-0.232,0.26-0.479,0.779-0.738c0.479,0.123,0.711,0.185,0.697,0.185
		c1.053-0.096,1.798-0.144,2.235-0.144h3.363C150.352,269.977,151.138,269.916,152.04,269.793z"/>
	<path class="st5" d="M158.274,268.644h0.328c0.725,0,1.087,1.586,1.087,4.758v1.066c0,1.08-0.164,3.849-0.492,8.306
		c0,0.178,0.027,0.376,0.082,0.595c-0.055,2.885-0.082,5.168-0.082,6.85v5.332c0,0.082,0.055,0.349,0.164,0.8
		c-0.109,0.67-0.39,1.005-0.841,1.005h-0.328c-0.561,0-0.841-0.875-0.841-2.625c0-9.502,0.164-16.044,0.492-19.626v-2.276
		c0-1.258-0.082-2.399-0.246-3.425C157.598,269.171,157.823,268.918,158.274,268.644z"/>
	<path class="st5" d="M172.056,268.316h0.328c0.342,0,0.595,0.232,0.759,0.697l-2.461,22.046c-0.219,4.143-0.506,6.214-0.861,6.214
		l-0.164,0.082h-0.39c-0.574,0-1.046-1.682-1.415-5.045c-1.422-9.037-2.133-16.256-2.133-21.656l-0.246-1.066
		c0-0.246,0.226-0.506,0.677-0.779h0.328c0.834,0,1.251,2.263,1.251,6.788c0.697,7.807,1.333,13.392,1.907,16.755h-0.882
		c0-0.861,0.766-7.813,2.297-20.856C171.174,269.376,171.509,268.316,172.056,268.316z"/>
	<path class="st5" d="M181.776,268.234l0.185,0.103c-0.383,0-0.574-0.041-0.574-0.123c2.434,0.219,3.65,0.561,3.65,1.025v0.144
		c-0.178,0.506-0.499,0.759-0.964,0.759l-2.379-0.246c-0.109,0-0.458,0.021-1.046,0.062l0.041,0.574c0,0.902,0.13,4.382,0.39,10.438
		h0.082c0.396,0,0.738-0.027,1.025-0.082c1.285,0.109,2.297,0.164,3.035,0.164l0.472,0.636v0.349c0,0.438-0.28,0.656-0.841,0.656
		c-0.492,0-1.285-0.055-2.379-0.164c-0.725,0.055-1.183,0.082-1.374,0.082v-0.082c0,3.855,0.185,8.176,0.554,12.961
		c0.068,0,0.103,0.021,0.103,0.062c1.709-0.096,2.803-0.144,3.281-0.144c0.424,0.137,0.725,0.383,0.902,0.738v0.164
		c0,0.219-0.219,0.465-0.656,0.738c-2.174,0.055-3.479,0.109-3.917,0.164c-1.025,0-1.538-0.485-1.538-1.456
		c-0.383-5.223-0.574-9.577-0.574-13.063v-2.625c-0.273-4.812-0.41-8.053-0.41-9.721c-0.164-0.82-0.246-1.333-0.246-1.538
		l0.636-0.472h1.107C180.642,268.337,181.12,268.303,181.776,268.234z"/>
</g>
<g>
	<path class="st5" d="M37.494,278.533l-10.351-9.985c-0.132-0.115-3.781-3.449-3.781-7.431c0-4.859,2.969-7.762,7.929-7.762
		c2.902,0,5.622,2.289,6.933,3.582c1.311-1.293,4.03-3.582,6.933-3.582c4.96,0,7.929,2.902,7.929,7.762
		c0,3.981-3.649,7.315-3.798,7.464l-10.334,9.952c-0.198,0.199-0.464,0.299-0.729,0.299S37.692,278.732,37.494,278.533z"/>
</g>
<g>
	<path class="st7" d="M501.591,129.854c-1.446-1.058-1.76-3.088-0.702-4.534l51.456-64.352c0.611-0.834,1.584-1.328,2.618-1.328
		h34.604c1.791,0,3.244,1.452,3.244,3.244c0,1.791-1.452,3.244-3.244,3.244H556.61l-50.484,63.024
		c-0.636,0.868-1.621,1.328-2.621,1.328C502.841,130.48,502.17,130.277,501.591,129.854z"/>
	<circle class="st5" cx="503.508" cy="127.236" r="14.058"/>
	<path class="st7" d="M486.206,127.236c0-9.54,7.762-17.302,17.302-17.302s17.302,7.762,17.302,17.302s-7.762,17.302-17.302,17.302
		S486.206,136.776,486.206,127.236z M492.694,127.236c0,5.963,4.851,10.814,10.814,10.814s10.814-4.851,10.814-10.814
		c0-5.963-4.851-10.814-10.814-10.814S492.694,121.273,492.694,127.236z"/>
	<path class="st7" d="M812.377,22.573H621.599c-23.327,0-42.238,18.91-42.238,42.238v0c0,23.327,18.91,42.238,42.238,42.238h190.778
		c23.327,0,42.238-18.91,42.238-42.238v0C854.615,41.483,835.704,22.573,812.377,22.573z"/>
	<path class="st5" d="M811.697,103.816H621.763c-21.653,0-39.269-17.616-39.269-39.268s17.616-39.267,39.269-39.267h189.934
		c21.651,0,39.267,17.615,39.267,39.267S833.348,103.816,811.697,103.816z M621.763,26.488c-20.987,0-38.062,17.074-38.062,38.06
		s17.075,38.061,38.062,38.061h189.934c20.987,0,38.06-17.074,38.06-38.061s-17.073-38.06-38.06-38.06H621.763z"/>
	<g>
		<path class="st5" d="M637.347,32.24c0.643,0.205,2.543,4.601,5.701,13.187h-0.677c0-0.355,1.395-4.58,4.184-12.674h0.984
			l0.369,0.718l0.021,0.902c-0.15,4.895-0.226,9.03-0.226,12.407c0,1.299,0.246,6.07,0.738,14.314l-0.882,0.431
			c-0.738,0-1.271-4.594-1.6-13.781v-9.618h0.677c-1.941,6.029-3.124,9.215-3.548,9.557c-0.875-0.055-2.577-3.644-5.106-10.767
			h0.636v-0.164l1.21,23.851l-0.841,0.451c-0.766,0-1.148-0.301-1.148-0.902c-0.479-14.287-0.964-23.427-1.456-27.419L637.347,32.24
			z"/>
		<path class="st5" d="M653.876,32.814h0.328c0.725,0,1.087,1.586,1.087,4.758v1.066c0,1.08-0.164,3.849-0.492,8.306
			c0,0.178,0.027,0.376,0.082,0.595c-0.055,2.885-0.082,5.168-0.082,6.85v5.332c0,0.082,0.055,0.349,0.164,0.8
			c-0.109,0.67-0.39,1.005-0.841,1.005h-0.328c-0.561,0-0.841-0.875-0.841-2.625c0-9.502,0.164-16.044,0.492-19.626v-2.276
			c0-1.258-0.082-2.399-0.246-3.425C653.2,33.34,653.425,33.087,653.876,32.814z"/>
		<path class="st5" d="M661.382,32.383c0.574,0,1.982,3.842,4.225,11.525c0.314,1.75,1.6,6.063,3.855,12.94h-0.677v-0.287
			c-0.314-6.645-0.472-10.377-0.472-11.197c0-0.246,0.034-1.08,0.103-2.502c-0.014-0.15-0.021-0.479-0.021-0.984
			c0.109-1.08,0.164-1.935,0.164-2.563V33.47c0.068-0.574,0.438-0.861,1.107-0.861l0.861,0.451c-0.164,3.24-0.246,5.64-0.246,7.198
			v2.317c0,4.758,0.15,10.972,0.451,18.642l-0.82,0.41c-0.684,0-2.837-6.166-6.46-18.498l-2.153-7.342l0.759,1.23l0.062-1.189
			c0.096,1.135,0.144,2.037,0.144,2.707l0.021,0.697c-0.109,3.035-0.164,5.161-0.164,6.378c0,6.111,0.246,11.293,0.738,15.545
			h-1.025c-0.643,0-0.964-0.287-0.964-0.861c-0.314-4.771-0.472-9.044-0.472-12.817V33.245
			C660.494,32.67,660.822,32.383,661.382,32.383z"/>
		<path class="st5" d="M674.405,31.337h0.697c2.365,0.779,4.163,2.263,5.394,4.45c1.777,3.609,2.666,7.321,2.666,11.136v0.41
			c0,5.469-2.017,9.96-6.05,13.474c-0.629,0.205-1.053,0.308-1.271,0.308c-0.465,0-0.752-0.595-0.861-1.784l0.082-0.164
			c-0.15-1.203-0.26-3.097-0.328-5.681h-0.144l0.164,0.328V53.65c0-2.16,0.027-4.129,0.082-5.906L674.405,31.337z M676.353,33.593
			V33.06c0.055,6.166,0.164,11.033,0.328,14.602c-0.055,1.463-0.082,2.967-0.082,4.512v0.984c0,2.064,0.075,3.931,0.226,5.599
			c0.697-0.602,1.572-1.757,2.625-3.466c1.244-2.734,1.866-5.305,1.866-7.711v-0.82c0-3.377-0.834-6.822-2.502-10.336
			C677.665,34.701,676.845,33.757,676.353,33.593z"/>
		<path class="st5" d="M688.678,32.875c2.229,0.109,3.965,0.164,5.209,0.164l0.369,0.554c0,0.725-0.342,1.087-1.025,1.087
			c-1.408-0.055-2.782-0.082-4.122-0.082l0.39,9.844v0.062l0.041,0.533c0.506-0.068,1.169-0.103,1.989-0.103h2.133
			c0.41,0,0.67,0.349,0.779,1.046l-0.738,0.595h-2.502c-1.025,0-1.538-0.027-1.538-0.082v0.902c0,0.793,0.055,4.074,0.164,9.844
			v0.882l0.082,0.492c0,0.342-0.014,0.513-0.041,0.513l0.041,0.39v0.923c0,0.219-0.205,0.438-0.615,0.656h-0.39
			c-0.301,0-0.581-0.212-0.841-0.636l-0.308-16.919l-0.349-0.82l0.164,0.328c-0.219-4.334-0.328-7.567-0.328-9.7
			C687.68,33.033,688.159,32.875,688.678,32.875z"/>
		<path class="st5" d="M700.388,31.83h0.492c0.533,0.26,0.8,0.615,0.8,1.066v0.41c0.479,8.887,1.073,16.037,1.784,21.451
			c0.451,3.418,0.984,5.127,1.6,5.127c0.451-0.191,0.677-0.574,0.677-1.148c0-2.146-0.226-7.561-0.677-16.242
			c0.068-1.586,0.103-3.117,0.103-4.594v-1.948l-0.103-0.554l0.082-0.185c-0.041-0.67-0.13-1.47-0.267-2.399l0.677-0.492h0.451
			c0.547,0,0.882,0.902,1.005,2.707c0,0.383-0.021,0.574-0.062,0.574c0.041,0.547,0.062,1.012,0.062,1.395v2.646l-0.082,0.492
			c0-0.232,0.034-0.349,0.103-0.349c-0.068,0.93-0.103,1.531-0.103,1.805v0.328c0.438,9.516,0.656,15.128,0.656,16.837
			c-0.178,1.846-1.06,2.769-2.646,2.769c-1.805,0-2.96-2.748-3.466-8.244c-0.602-4.689-1.183-11.676-1.743-20.959L700.388,31.83z"/>
		<path class="st5" d="M714.149,31.255h0.082c0.301,0,0.581,0.212,0.841,0.636c0,0.615,0.027,0.923,0.082,0.923l-0.164-0.328
			c0.383,6.016,0.574,11.067,0.574,15.155c0.164,1.326,0.246,3.165,0.246,5.517v6.727h3.917c0.314,0,0.567,0.191,0.759,0.574v0.328
			c0,0.492-0.636,0.738-1.907,0.738h-3.773c-0.287,0-0.567-0.212-0.841-0.636v-0.595c0-0.656,0.014-0.984,0.041-0.984l-0.041-0.554
			v-6.009c-0.219-7.191-0.438-13.173-0.656-17.944l-0.246-2.769C713.226,31.515,713.588,31.255,714.149,31.255z"/>
		<path class="st5" d="M725.572,32.383c0.574,0,1.982,3.842,4.225,11.525c0.314,1.75,1.6,6.063,3.855,12.94h-0.677v-0.287
			c-0.314-6.645-0.472-10.377-0.472-11.197c0-0.246,0.034-1.08,0.103-2.502c-0.014-0.15-0.021-0.479-0.021-0.984
			c0.109-1.08,0.164-1.935,0.164-2.563V33.47c0.068-0.574,0.438-0.861,1.107-0.861l0.861,0.451c-0.164,3.24-0.246,5.64-0.246,7.198
			v2.317c0,4.758,0.15,10.972,0.451,18.642l-0.82,0.41c-0.684,0-2.837-6.166-6.46-18.498l-2.153-7.342l0.759,1.23l0.062-1.189
			c0.096,1.135,0.144,2.037,0.144,2.707l0.021,0.697c-0.109,3.035-0.164,5.161-0.164,6.378c0,6.111,0.246,11.293,0.738,15.545
			h-1.025c-0.643,0-0.964-0.287-0.964-0.861c-0.314-4.771-0.472-9.044-0.472-12.817V33.245
			C724.683,32.67,725.011,32.383,725.572,32.383z"/>
		<path class="st5" d="M742.614,32.404l0.185,0.103c-0.383,0-0.574-0.041-0.574-0.123c2.434,0.219,3.65,0.561,3.65,1.025v0.144
			c-0.178,0.506-0.499,0.759-0.964,0.759l-2.379-0.246c-0.109,0-0.458,0.021-1.046,0.062l0.041,0.574
			c0,0.902,0.13,4.382,0.39,10.438h0.082c0.396,0,0.738-0.027,1.025-0.082c1.285,0.109,2.297,0.164,3.035,0.164l0.472,0.636v0.349
			c0,0.438-0.28,0.656-0.841,0.656c-0.492,0-1.285-0.055-2.379-0.164c-0.725,0.055-1.183,0.082-1.374,0.082v-0.082
			c0,3.855,0.185,8.176,0.554,12.961c0.068,0,0.103,0.021,0.103,0.062c1.709-0.096,2.803-0.144,3.281-0.144
			c0.424,0.137,0.725,0.383,0.902,0.738v0.164c0,0.219-0.219,0.465-0.656,0.738c-2.174,0.055-3.479,0.109-3.917,0.164
			c-1.025,0-1.538-0.485-1.538-1.456c-0.383-5.223-0.574-9.577-0.574-13.063v-2.625c-0.273-4.812-0.41-8.053-0.41-9.721
			c-0.164-0.82-0.246-1.333-0.246-1.538l0.636-0.472h1.107C741.479,32.506,741.957,32.472,742.614,32.404z"/>
		<path class="st5" d="M755.759,32.998l0.472,0.595v0.267c0,0.191-0.246,0.458-0.738,0.8h-1.005c-1.217,0-2.037,0.444-2.461,1.333
			c-0.424,1.148-0.636,2.434-0.636,3.855c0,0.861,0.376,2.283,1.128,4.266c0.246,0.492,1.695,1.941,4.348,4.348
			c1.436,2.051,2.153,4.067,2.153,6.05c0,1.559-0.335,3.083-1.005,4.573c-0.355,0.807-1.258,1.477-2.707,2.01
			c-0.547,0.287-1.012,0.431-1.395,0.431c-0.52,0-0.882-0.219-1.087-0.656v-0.287c0-0.396,0.424-0.636,1.271-0.718
			c1.559-0.588,2.338-1.196,2.338-1.825c0.492-0.984,0.738-2.235,0.738-3.753c0-1.982-0.889-3.917-2.666-5.804
			c-1.477-1.121-2.584-2.208-3.322-3.261c-0.533-0.574-1.053-2.044-1.559-4.409c0-0.287-0.027-0.649-0.082-1.087
			c0-1.818,0.342-3.438,1.025-4.86C751.432,33.621,753.162,32.998,755.759,32.998z"/>
		<path class="st5" d="M767.551,32.998l0.472,0.595v0.267c0,0.191-0.246,0.458-0.738,0.8h-1.005c-1.217,0-2.037,0.444-2.461,1.333
			c-0.424,1.148-0.636,2.434-0.636,3.855c0,0.861,0.376,2.283,1.128,4.266c0.246,0.492,1.695,1.941,4.348,4.348
			c1.436,2.051,2.153,4.067,2.153,6.05c0,1.559-0.335,3.083-1.005,4.573c-0.355,0.807-1.258,1.477-2.707,2.01
			c-0.547,0.287-1.012,0.431-1.395,0.431c-0.52,0-0.882-0.219-1.087-0.656v-0.287c0-0.396,0.424-0.636,1.271-0.718
			c1.559-0.588,2.338-1.196,2.338-1.825c0.492-0.984,0.738-2.235,0.738-3.753c0-1.982-0.889-3.917-2.666-5.804
			c-1.477-1.121-2.584-2.208-3.322-3.261c-0.533-0.574-1.053-2.044-1.559-4.409c0-0.287-0.027-0.649-0.082-1.087
			c0-1.818,0.342-3.438,1.025-4.86C763.224,33.621,764.954,32.998,767.551,32.998z"/>
		<path class="st5" d="M789.577,37.695c1.791,0.246,2.687,1.039,2.687,2.379v0.246c0,0.711-0.875,2.304-2.625,4.778v-0.103
			c0.752,1.545,1.88,3.295,3.384,5.25h-0.677c0.287-2.68,0.827-4.02,1.62-4.02h0.246c0.287,0,0.581,0.239,0.882,0.718l-0.554,1.189
			c-0.369,2.023-0.554,3.213-0.554,3.568c2.037,2.693,3.213,4.313,3.527,4.86v0.164c0,0.219-0.226,0.465-0.677,0.738
			c-0.643,0-1.278-0.526-1.907-1.579c-0.246-0.246-0.745-0.889-1.497-1.928c-0.643,2.229-1.887,3.343-3.732,3.343
			c-1.654,0-2.96-0.711-3.917-2.133c-0.355-0.793-0.533-1.531-0.533-2.215c0-2.529,0.772-5.147,2.317-7.854
			c-1.545-2.242-2.317-3.753-2.317-4.532V40.32c0-1.23,1.012-2.044,3.035-2.44C788.572,37.756,789.002,37.695,789.577,37.695z
			 M787.095,40.402c0,0.697,0.608,1.818,1.825,3.363h-0.513c1.34-1.982,2.01-3.131,2.01-3.445v-0.062
			c-0.082-0.615-0.342-0.923-0.779-0.923C787.943,39.499,787.095,39.855,787.095,40.402z M788.592,46.923
			c-0.998,2.051-1.497,4.088-1.497,6.111c0,1.518,0.882,2.393,2.646,2.625c1.039,0,1.805-1.258,2.297-3.773
			C790.903,50.505,789.754,48.851,788.592,46.923z"/>
		<path class="st5" d="M638.475,66.312c2.912,0,4.881,1.278,5.906,3.835c0.178,0.561,0.294,1.217,0.349,1.969
			c0,3.459-0.608,7.253-1.825,11.382c-0.629,1.08-1.531,1.914-2.707,2.502c-0.424,0.014-0.636-0.041-0.636-0.164v0.082
			c0,0.711,0.027,1.312,0.082,1.805c-0.055,0.492-0.082,0.766-0.082,0.82c0.164,3.09,0.246,4.758,0.246,5.004
			c0.164,0.027,0.246,0.355,0.246,0.984v0.308c-0.219,0.574-0.513,0.937-0.882,1.087h-0.287c-0.287,0-0.567-0.212-0.841-0.636
			v-0.677v-0.492c-0.041-0.232-0.096-0.8-0.164-1.702c0-0.342,0.021-0.513,0.062-0.513l-0.226-3.035
			c0.055-0.561,0.082-0.971,0.082-1.23c-0.055-0.998-0.082-1.552-0.082-1.661c-0.219-0.109-0.328-0.335-0.328-0.677
			c0.123-0.465,0.219-0.697,0.287-0.697c-0.082-1.162-0.123-1.9-0.123-2.215l0.39-14.52c-0.096,0-0.144-0.191-0.144-0.574V67.05
			C637.798,66.831,638.024,66.585,638.475,66.312z M639.788,68.055l-0.39,14.335c0.055,1.148,0.082,1.866,0.082,2.153l-0.205-0.103
			c0.369,0,0.827-0.287,1.374-0.861c0.861-0.547,1.579-3.821,2.153-9.823c0.055-0.984,0.082-1.634,0.082-1.948
			c0-1.299-0.738-2.468-2.215-3.507C640.273,68.164,639.979,68.082,639.788,68.055z"/>
		<path class="st5" d="M652.215,66.804l0.185,0.103c-0.383,0-0.574-0.041-0.574-0.123c2.434,0.219,3.65,0.561,3.65,1.025v0.144
			c-0.178,0.506-0.499,0.759-0.964,0.759l-2.379-0.246c-0.109,0-0.458,0.021-1.046,0.062l0.041,0.574
			c0,0.902,0.13,4.382,0.39,10.438h0.082c0.396,0,0.738-0.027,1.025-0.082c1.285,0.109,2.297,0.164,3.035,0.164l0.472,0.636v0.349
			c0,0.438-0.28,0.656-0.841,0.656c-0.492,0-1.285-0.055-2.379-0.164c-0.725,0.055-1.183,0.082-1.374,0.082v-0.082
			c0,3.855,0.185,8.176,0.554,12.961c0.068,0,0.103,0.021,0.103,0.062c1.709-0.096,2.803-0.144,3.281-0.144
			c0.424,0.137,0.725,0.383,0.902,0.738v0.164c0,0.219-0.219,0.465-0.656,0.738c-2.174,0.055-3.479,0.109-3.917,0.164
			c-1.025,0-1.538-0.485-1.538-1.456c-0.383-5.223-0.574-9.577-0.574-13.063v-2.625c-0.273-4.812-0.41-8.053-0.41-9.721
			c-0.164-0.82-0.246-1.333-0.246-1.538l0.636-0.472h1.107C651.081,66.907,651.559,66.872,652.215,66.804z"/>
		<path class="st5" d="M663.372,67.112h0.205c0.984,0.451,1.771,1.518,2.358,3.199c1.531,4.73,2.659,10.76,3.384,18.088
			c0.479,2.379,0.718,4.498,0.718,6.357c-0.164,0.41-0.636,0.615-1.415,0.615c-0.328-0.629-0.711-2.919-1.148-6.87
			c-0.123-0.424-0.383-2.14-0.779-5.147l-0.185-0.021c-2.598,0.246-3.896,0.41-3.896,0.492v3.199l-0.554,7.506
			c0.123,0.178,0.185,0.383,0.185,0.615s-0.239,0.492-0.718,0.779c-0.93,0-1.395-0.444-1.395-1.333
			c0.424-5.77,0.636-9.229,0.636-10.377c-0.055-0.752-0.082-1.518-0.082-2.297c0.027-3.951,0.355-8.135,0.984-12.551
			C661.984,67.864,662.551,67.112,663.372,67.112z M663.741,69.224c-0.697,2.68-1.046,6.569-1.046,11.669
			c-0.055,0-0.082,0.526-0.082,1.579v-0.308c1.326-0.369,2.646-0.554,3.958-0.554v0.308c0-1.641-0.902-5.558-2.707-11.751
			C663.522,69.429,663.481,69.115,663.741,69.224z"/>
		<path class="st5" d="M680.065,67.296h0.636c1.285,0.232,1.928,0.725,1.928,1.477c0,0.219-0.226,0.465-0.677,0.738h-0.759
			c-0.355-0.438-0.615-0.656-0.779-0.656c-1.094,0.383-1.641,0.711-1.641,0.984c-1.094,2.078-1.641,4.895-1.641,8.449v1.395
			c0,2.42,0.328,5.325,0.984,8.716c0.383,2.447,0.896,4.081,1.538,4.901c0.725,0.629,1.333,0.957,1.825,0.984
			c0.602,0,1.374-0.602,2.317-1.805h0.533c0.314,0,0.567,0.191,0.759,0.574V93.3c0,0.629-0.677,1.374-2.03,2.235
			c-0.615,0.26-1.176,0.39-1.682,0.39h-0.123c-0.943-0.109-1.9-0.588-2.871-1.436c-1.053-0.834-1.948-4.026-2.687-9.577
			c-0.273-1.189-0.41-3.151-0.41-5.886v-0.492c0.096-5.66,1.066-9.188,2.912-10.582C679.115,67.515,679.737,67.296,680.065,67.296z"
			/>
		<path class="st5" d="M692.206,66.804l0.185,0.103c-0.383,0-0.574-0.041-0.574-0.123c2.434,0.219,3.65,0.561,3.65,1.025v0.144
			c-0.178,0.506-0.499,0.759-0.964,0.759l-2.379-0.246c-0.109,0-0.458,0.021-1.046,0.062l0.041,0.574
			c0,0.902,0.13,4.382,0.39,10.438h0.082c0.396,0,0.738-0.027,1.025-0.082c1.285,0.109,2.297,0.164,3.035,0.164l0.472,0.636v0.349
			c0,0.438-0.28,0.656-0.841,0.656c-0.492,0-1.285-0.055-2.379-0.164c-0.725,0.055-1.183,0.082-1.374,0.082v-0.082
			c0,3.855,0.185,8.176,0.554,12.961c0.068,0,0.103,0.021,0.103,0.062c1.709-0.096,2.803-0.144,3.281-0.144
			c0.424,0.137,0.725,0.383,0.902,0.738v0.164c0,0.219-0.219,0.465-0.656,0.738c-2.174,0.055-3.479,0.109-3.917,0.164
			c-1.025,0-1.538-0.485-1.538-1.456c-0.383-5.223-0.574-9.577-0.574-13.063v-2.625c-0.273-4.812-0.41-8.053-0.41-9.721
			c-0.164-0.82-0.246-1.333-0.246-1.538l0.636-0.472h1.107C691.071,66.907,691.549,66.872,692.206,66.804z"/>
		<path class="st5" d="M714.415,66.804l0.185,0.103c-0.383,0-0.574-0.041-0.574-0.123c2.434,0.219,3.65,0.561,3.65,1.025v0.144
			c-0.178,0.506-0.499,0.759-0.964,0.759l-2.379-0.246c-0.109,0-0.458,0.021-1.046,0.062l0.041,0.574
			c0,0.902,0.13,4.382,0.39,10.438h0.082c0.396,0,0.738-0.027,1.025-0.082c1.285,0.109,2.297,0.164,3.035,0.164l0.472,0.636v0.349
			c0,0.438-0.28,0.656-0.841,0.656c-0.492,0-1.285-0.055-2.379-0.164c-0.725,0.055-1.183,0.082-1.374,0.082v-0.082
			c0,3.855,0.185,8.176,0.554,12.961c0.068,0,0.103,0.021,0.103,0.062c1.709-0.096,2.803-0.144,3.281-0.144
			c0.424,0.137,0.725,0.383,0.902,0.738v0.164c0,0.219-0.219,0.465-0.656,0.738c-2.174,0.055-3.479,0.109-3.917,0.164
			c-1.025,0-1.538-0.485-1.538-1.456c-0.383-5.223-0.574-9.577-0.574-13.063v-2.625c-0.273-4.812-0.41-8.053-0.41-9.721
			c-0.164-0.82-0.246-1.333-0.246-1.538l0.636-0.472h1.107C713.281,66.907,713.759,66.872,714.415,66.804z"/>
		<path class="st5" d="M722.188,65.738h0.697c2.365,0.779,4.163,2.263,5.394,4.45c1.777,3.609,2.666,7.321,2.666,11.136v0.41
			c0,5.469-2.017,9.96-6.05,13.474c-0.629,0.205-1.053,0.308-1.271,0.308c-0.465,0-0.752-0.595-0.861-1.784l0.082-0.164
			c-0.15-1.203-0.26-3.097-0.328-5.681h-0.144l0.164,0.328V88.05c0-2.16,0.027-4.129,0.082-5.906L722.188,65.738z M724.136,67.994
			V67.46c0.055,6.166,0.164,11.033,0.328,14.602c-0.055,1.463-0.082,2.967-0.082,4.512v0.984c0,2.064,0.075,3.931,0.226,5.599
			c0.697-0.602,1.572-1.757,2.625-3.466c1.244-2.734,1.866-5.305,1.866-7.711v-0.82c0-3.377-0.834-6.822-2.502-10.336
			C725.449,69.101,724.628,68.158,724.136,67.994z"/>
		<path class="st5" d="M736.666,66.23h0.492c0.533,0.26,0.8,0.615,0.8,1.066v0.41c0.479,8.887,1.073,16.037,1.784,21.451
			c0.451,3.418,0.984,5.127,1.6,5.127c0.451-0.191,0.677-0.574,0.677-1.148c0-2.146-0.226-7.561-0.677-16.242
			c0.068-1.586,0.103-3.117,0.103-4.594v-1.948l-0.103-0.554l0.082-0.185c-0.041-0.67-0.13-1.47-0.267-2.399l0.677-0.492h0.451
			c0.547,0,0.882,0.902,1.005,2.707c0,0.383-0.021,0.574-0.062,0.574c0.041,0.547,0.062,1.012,0.062,1.395v2.646l-0.082,0.492
			c0-0.232,0.034-0.349,0.103-0.349c-0.068,0.93-0.103,1.531-0.103,1.805v0.328c0.438,9.516,0.656,15.128,0.656,16.837
			c-0.178,1.846-1.06,2.769-2.646,2.769c-1.805,0-2.96-2.748-3.466-8.244c-0.602-4.689-1.183-11.676-1.743-20.959L736.666,66.23z"/>
		<path class="st5" d="M753.975,67.296h0.636c1.285,0.232,1.928,0.725,1.928,1.477c0,0.219-0.226,0.465-0.677,0.738h-0.759
			c-0.355-0.438-0.615-0.656-0.779-0.656c-1.094,0.383-1.641,0.711-1.641,0.984c-1.094,2.078-1.641,4.895-1.641,8.449v1.395
			c0,2.42,0.328,5.325,0.984,8.716c0.383,2.447,0.896,4.081,1.538,4.901c0.725,0.629,1.333,0.957,1.825,0.984
			c0.602,0,1.374-0.602,2.317-1.805h0.533c0.314,0,0.567,0.191,0.759,0.574V93.3c0,0.629-0.677,1.374-2.03,2.235
			c-0.615,0.26-1.176,0.39-1.682,0.39h-0.123c-0.943-0.109-1.9-0.588-2.871-1.436c-1.053-0.834-1.948-4.026-2.687-9.577
			c-0.273-1.189-0.41-3.151-0.41-5.886v-0.492c0.096-5.66,1.066-9.188,2.912-10.582C753.025,67.515,753.647,67.296,753.975,67.296z"
			/>
		<path class="st5" d="M765.48,67.112h0.205c0.984,0.451,1.771,1.518,2.358,3.199c1.531,4.73,2.659,10.76,3.384,18.088
			c0.479,2.379,0.718,4.498,0.718,6.357c-0.164,0.41-0.636,0.615-1.415,0.615c-0.328-0.629-0.711-2.919-1.148-6.87
			c-0.123-0.424-0.383-2.14-0.779-5.147l-0.185-0.021c-2.598,0.246-3.896,0.41-3.896,0.492v3.199l-0.554,7.506
			c0.123,0.178,0.185,0.383,0.185,0.615s-0.239,0.492-0.718,0.779c-0.93,0-1.395-0.444-1.395-1.333
			c0.424-5.77,0.636-9.229,0.636-10.377c-0.055-0.752-0.082-1.518-0.082-2.297c0.027-3.951,0.355-8.135,0.984-12.551
			C764.092,67.864,764.66,67.112,765.48,67.112z M765.849,69.224c-0.697,2.68-1.046,6.569-1.046,11.669
			c-0.055,0-0.082,0.526-0.082,1.579v-0.308c1.326-0.369,2.646-0.554,3.958-0.554v0.308c0-1.641-0.902-5.558-2.707-11.751
			C765.63,69.429,765.589,69.115,765.849,69.224z"/>
		<path class="st5" d="M785.844,68.363l0.533,0.615v0.328c0,0.506-0.937,0.759-2.81,0.759h-2.297c0.164,0,0.253-0.021,0.267-0.062
			l0.164,3.712c-0.055,0.342-0.082,0.526-0.082,0.554c0.492,8.271,0.738,14.171,0.738,17.698c0.055,0.096,0.082,0.232,0.082,0.41
			c-0.055,0.082-0.082,0.109-0.082,0.082l0.103,0.554c-0.191,0.438-0.451,0.656-0.779,0.656h-0.328
			c-0.232,0-0.513-0.191-0.841-0.574c0-0.191,0.027-0.499,0.082-0.923c0-1.162-0.246-7.062-0.738-17.698
			c0-1.723-0.048-3.227-0.144-4.512l0.185,0.103h-0.082l-2.871,0.246c-0.355-0.383-0.533-0.738-0.533-1.066
			c0-0.232,0.26-0.479,0.779-0.738c0.479,0.123,0.711,0.185,0.697,0.185c1.053-0.096,1.798-0.144,2.235-0.144h3.363
			C784.156,68.547,784.942,68.486,785.844,68.363z"/>
		<path class="st5" d="M792.079,67.214h0.328c0.725,0,1.087,1.586,1.087,4.758v1.066c0,1.08-0.164,3.849-0.492,8.306
			c0,0.178,0.027,0.376,0.082,0.595c-0.055,2.885-0.082,5.168-0.082,6.85v5.332c0,0.082,0.055,0.349,0.164,0.8
			c-0.109,0.67-0.39,1.005-0.841,1.005h-0.328c-0.561,0-0.841-0.875-0.841-2.625c0-9.502,0.164-16.044,0.492-19.626v-2.276
			c0-1.258-0.082-2.399-0.246-3.425C791.402,67.741,791.627,67.488,792.079,67.214z"/>
		<path class="st5" d="M802.804,66.968c1.859,0,3.261,3.814,4.204,11.443c0.055,0.725,0.082,1.641,0.082,2.748v0.328
			c0,0.219-0.021,0.438-0.062,0.656c0.041,0.055,0.062,0.273,0.062,0.656v0.082c0,0.383-0.021,0.602-0.062,0.656
			c0.041,0.219,0.062,0.355,0.062,0.41c0,5.879-0.861,9.543-2.584,10.992c-0.697,0.273-1.183,0.41-1.456,0.41h-0.656
			c-2.229-0.533-3.603-3.206-4.122-8.019l-0.246-3.363c0-7.766,0.991-13.187,2.974-16.263
			C801.656,67.214,802.257,66.968,802.804,66.968z M799.872,83.703c0,3.049,0.403,5.715,1.21,7.998c0.67,1.34,1.189,2.01,1.559,2.01
			h0.082c0.82,0,1.367-0.663,1.641-1.989c0.588-1.395,0.882-4.396,0.882-9.003v-1.641c0-3.186-0.567-6.843-1.702-10.972
			c-0.369-0.82-0.643-1.292-0.82-1.415c-0.301,0.109-0.492,0.287-0.574,0.533C800.63,72.437,799.872,77.263,799.872,83.703z"/>
		<path class="st5" d="M812.34,66.784c0.574,0,1.982,3.842,4.225,11.525c0.314,1.75,1.6,6.063,3.855,12.94h-0.677v-0.287
			c-0.314-6.645-0.472-10.377-0.472-11.197c0-0.246,0.034-1.08,0.103-2.502c-0.014-0.15-0.021-0.479-0.021-0.984
			c0.109-1.08,0.164-1.935,0.164-2.563v-5.845c0.068-0.574,0.438-0.861,1.107-0.861l0.861,0.451c-0.164,3.24-0.246,5.64-0.246,7.198
			v2.317c0,4.758,0.15,10.972,0.451,18.642l-0.82,0.41c-0.684,0-2.837-6.166-6.46-18.498l-2.153-7.342l0.759,1.23l0.062-1.189
			c0.096,1.135,0.144,2.037,0.144,2.707l0.021,0.697c-0.109,3.035-0.164,5.161-0.164,6.378c0,6.111,0.246,11.293,0.738,15.545
			h-1.025c-0.643,0-0.964-0.287-0.964-0.861c-0.314-4.771-0.472-9.044-0.472-12.817V67.645
			C811.452,67.071,811.78,66.784,812.34,66.784z"/>
	</g>
	<g>
		<path class="st5" d="M624.365,61.395c-1.062,5.158-4.379,8.509-8.989,10.798c-2.239,1.128-4.744,1.791-7.265,1.791
			c-1.593,0-3.234-0.265-4.744-0.779c-0.796-0.266-2.389-1.311-3.052-1.311c-0.829,0-1.824,3.384-3.268,3.384
			c-1.045,0-1.36-0.514-1.808-1.277c-0.149-0.282-0.266-0.381-0.266-0.729c0-1.725,3.284-3.068,3.284-4.031
			c0-0.149-0.432-1.028-0.498-1.36c-0.1-0.564-0.148-1.145-0.148-1.725c0-5.274,4.196-9.04,8.906-10.599
			c3.4-1.128,10.632,0.183,12.938-2.007c0.912-0.846,1.36-1.625,2.753-1.625c1.875,0,2.488,4.86,2.488,6.27
			C624.697,59.256,624.581,60.334,624.365,61.395z M615.143,60.417c-5.871,0-9.653,2.455-13.484,6.684
			c-0.199,0.216-0.315,0.448-0.315,0.747c0,0.581,0.481,1.062,1.062,1.062c0.299,0,0.53-0.116,0.746-0.315
			c0.813-0.73,1.543-1.526,2.339-2.272c3.002-2.704,5.573-3.782,9.653-3.782c0.58,0,1.062-0.481,1.062-1.062
			S615.723,60.417,615.143,60.417z"/>
	</g>
</g>
</svg>
