<?xml version="1.0" encoding="utf-8"?>
<!-- Generator: Adobe Illustrator 23.0.1, SVG Export Plug-In . SVG Version: 6.00 Build 0)  -->
<svg version="1.1" id="Layer_1" xmlns="http://www.w3.org/2000/svg" xmlns:xlink="http://www.w3.org/1999/xlink" x="0px" y="0px"
	 width="36.57px" height="22.157px" viewBox="0 0 36.57 22.157" style="enable-background:new 0 0 36.57 22.157;"
	 xml:space="preserve">
<style type="text/css">
	.st0{fill:#FFFFFF;}
</style>
<g>
	<path class="st0" d="M33.735,7.397c-0.082-0.033-0.165-0.049-0.247-0.049c-0.132,0-0.264,0.049-0.379,0.132
		c-0.412,0.329-0.824,0.511-1.071,0.593c-1.005-1.433-2.521-2.504-4.514-3.212c-1.433-0.494-3.13-0.791-4.695-0.791
		c-1.17,0-2.076,0.165-2.504,0.428l0,0l-0.016,0.016h-0.016l0,0c-0.016,0.016-0.049,0.033-0.066,0.066L20.21,4.596l0,0
		c-0.016,0.016-0.016,0.016-0.016,0.033c-0.033,0.049-0.362,0.461-0.544,1.301c-0.049,0.198-0.066,0.412-0.082,0.626
		c-0.28,0.379-0.807,0.955-1.746,1.384c-2.702,1.268-4.547,3.937-4.514,6.474c0,0.395,0,0.807,0,1.236
		c-5.189,1.384-7.347-1.45-8.056-2.784c0.198-0.198,0.346-0.428,0.445-0.675c0.428-1.137,1.466-2.57,2.24-3.427
		c2.306-2.537,4.135-2.834,5.321-2.834c0.247,0,0.494,0.016,0.758,0.033c0.049,0,0.082,0,0.148,0c0.214,0,0.494-0.033,0.774-0.115
		c0.066,0.049,0.774,0.593,1.054,1.614c0.082,0.313,0.395,0.494,0.725,0.428c0.016,0,0.033,0,0.049-0.016
		c0.329-0.082,0.527-0.428,0.445-0.741c-0.264-0.988-0.824-1.647-1.203-1.993c0.033-0.033,0.049-0.082,0.066-0.132
		c0.478-1.005,0.165-1.878,0-2.208c-0.906-1.829-3.031-2.471-4.646-2.685C10.886,0.049,10.326,0,9.749,0
		C8.612,0,7.476,0.148,6.784,0.379c-0.89,0.297-1.631,0.61-2.29,0.972C4.313,1.219,3.95,0.906,3.538,0.362
		C3.374,0.264,3.209,0.181,3.044,0.181c-0.016,0-0.033,0-0.033,0c-0.049,0-1.252,0.099-2.29,0.807
		C0.524,1.12,0.441,1.367,0.491,1.582C0.54,1.812,0.738,1.977,0.968,2.01C1.364,2.059,2.237,2.306,2.5,2.768
		c-0.906,0.84-1.582,1.845-2.01,3.015c-0.873,2.339-0.478,4.992,0.379,6.392c0.511,0.84,1.483,1.367,2.553,1.367
		c0.099,0,0.198,0,0.297-0.016c0.132-0.016,0.247-0.033,0.379-0.066c0.725,1.351,2.636,3.855,6.573,3.855
		c0.774,0,1.614-0.099,2.553-0.313c-0.099,1.236-0.346,2.471-0.84,3.427c-0.115,0.214-0.099,0.461,0.033,0.659
		c0.132,0.198,0.362,0.313,0.61,0.28c0.033,0,2.669-0.28,5.025,0c0.461,0.049,1.005,0.165,1.582,0.297
		c1.071,0.231,2.306,0.494,3.591,0.494c1.499,0,3.048-0.362,4.464-1.565c0.494,0.297,0.939,0.445,1.367,0.445
		c0.016,0,0.049,0,0.066,0c0.675-0.033,1.73-0.873,2.603-2.125c0.824-1.186,2.603-4.366,1.4-8.583
		c0.329-0.181,0.988-0.297,1.796-0.297c0.329,0,0.675,0.016,0.972,0.049c0.016,0,0.049,0,0.066,0c0.231,0,0.445-0.132,0.544-0.329
		c0.115-0.231,0.082-0.511-0.099-0.692C35.58,8.204,33.801,7.43,33.735,7.397z M9.716,0.165L9.716,0.165L9.716,0.165L9.716,0.165z
		 M3.604,12.421c-0.066,0-0.115,0-0.181,0c-0.264,0-1.137-0.066-1.598-0.84c-0.692-1.137-1.021-3.427-0.28-5.42
		c1.071-2.85,3.525-4.003,5.552-4.695C7.69,1.268,8.678,1.137,9.683,1.137c0.527,0,1.054,0.033,1.549,0.099
		c1.351,0.181,3.097,0.692,3.789,2.076c0.033,0.066,0.066,0.148,0.099,0.264c-0.955-0.544-3.031-1.499-5.667-1.499
		c-1.516,0-3.015,0.313-4.448,0.939c-0.28,0.132-0.412,0.461-0.297,0.741C4.79,3.954,5.005,4.086,5.219,4.086
		c0.082,0,0.148-0.016,0.231-0.049c1.268-0.56,2.603-0.84,3.97-0.84c2.619,0,4.629,1.038,5.387,1.483
		c-0.198,0.099-0.478,0.165-0.659,0.165c-0.016,0-0.033,0-0.049,0c-0.313-0.033-0.593-0.049-0.873-0.049
		c-0.873,0-1.697,0.165-2.504,0.478C10.49,5.206,9.535,4.942,8.184,4.942c-1.862,0-3.608,0.478-5.206,1.4
		C2.715,6.491,2.616,6.837,2.781,7.117c0.099,0.165,0.28,0.28,0.478,0.28c0.099,0,0.198-0.033,0.28-0.082
		c1.4-0.824,2.965-1.236,4.646-1.236c0.329,0,0.642,0.016,0.955,0.049c-0.708,0.494-1.4,1.12-2.092,1.862
		C6.948,8.105,6.833,8.221,6.718,8.369c-0.675,0-2.817,0.148-4.712,1.647c-0.115,0.099-0.198,0.231-0.214,0.379
		c-0.016,0.148,0.016,0.297,0.115,0.412c0.099,0.132,0.264,0.214,0.445,0.214c0.132,0,0.247-0.049,0.346-0.115
		c1.071-0.84,2.224-1.186,3.097-1.318c-0.412,0.61-0.923,1.417-1.219,2.208C4.494,12.141,4.115,12.372,3.604,12.421z M19.897,20.411
		c-0.61-0.132-1.186-0.247-1.697-0.313c-1.565-0.181-3.196-0.148-4.25-0.082c0.593-1.713,0.642-3.773,0.626-5.601
		c-0.033-2.043,1.516-4.217,3.773-5.288c0.511-0.247,0.939-0.511,1.268-0.791c0.066,0.412,0.165,0.84,0.297,1.301v0.016
		c0.379,1.236,1.021,2.57,1.895,3.954c1.862,2.949,3.443,5.008,4.777,6.194C24.526,21.4,22.088,20.873,19.897,20.411z
		 M30.836,18.039c-0.84,1.252-1.631,1.763-1.779,1.779c0,0,0,0-0.016,0c-0.214,0-0.988-0.148-2.57-1.911
		c0.923,0.346,1.878,0.527,2.866,0.527c0.329,0,0.61-0.28,0.61-0.61s-0.28-0.61-0.61-0.61c-2.982,0-4.86-1.927-5.09-2.175
		c-0.445-0.642-0.906-1.334-1.367-2.092c-0.115-0.198-0.247-0.395-0.346-0.577c1.532,1.054,3.954,2.092,7.545,2.092
		c0.329,0,0.61-0.28,0.61-0.61s-0.28-0.61-0.61-0.61c-6.31,0-8.682-3.509-8.995-4.003c-0.412-1.384-0.395-2.356-0.264-3.015
		c1.318,1.483,4.497,4.316,9.538,4.316c0.329,0,0.61-0.28,0.61-0.61s-0.28-0.61-0.61-0.61c-4.547,0-7.463-2.603-8.665-3.954
		c0.329-0.049,0.725-0.066,1.153-0.066c0.824,0,2.471,0.099,4.267,0.708c1.713,0.593,3.921,1.845,4.728,4.382
		C32.994,14.003,31.692,16.738,30.836,18.039z"/>
	<path class="st0" d="M23.917,17.644c-0.016-0.016-0.033-0.033-0.049-0.033c-0.016,0-0.033,0-0.049,0
		c-0.016,0-1.334,0.741-2.916,0.741c-1.631,0-4.926,0.428-5.964,1.021c-0.033,0.016-0.049,0.049-0.033,0.082
		s0.049,0.049,0.082,0.049c0.016,0,2.092-0.494,4.316,0c1.153,0.264,2.504,0.445,3.69,0.445c0.988,0,1.862-0.132,2.471-0.461
		c0.016-0.016,0.033-0.033,0.033-0.066c0-0.033-0.016-0.049-0.033-0.066C25.465,19.373,24.51,18.698,23.917,17.644z"/>
	<path class="st0" d="M12.813,13.377c-0.016-0.016-0.049-0.033-0.066-0.016c-0.049,0.016-4.695,1.219-6.754-0.84
		c-0.033-0.033-0.066-0.033-0.099,0c-0.033,0.016-0.033,0.066-0.016,0.099c0.049,0.099,1.318,2.389,3.196,2.702
		c0.61,0.115,1.236,0.148,1.779,0.148c1.087,0,1.911-0.148,1.927-0.148s0.033-0.016,0.049-0.033c0.016-0.016,0.016-0.033,0-0.066
		c0,0-0.28-0.824,0-1.779C12.83,13.41,12.83,13.393,12.813,13.377z"/>
</g>
</svg>
